<svg width="127" height="30" viewBox="0 0 127 30" fill="none" xmlns="http://www.w3.org/2000/svg">
<g opacity="0.6">
<path d="M37.0633 8.63463H40.2286V21.3711H37.0633V8.63463ZM41.4842 16.5621C41.4842 13.4121 43.4256 11.5326 46.4222 11.5326C49.4187 11.5326 51.3601 13.4121 51.3601 16.5621C51.3601 19.7121 49.4609 21.6021 46.4222 21.6021C43.3834 21.6021 41.4842 19.7646 41.4842 16.5621ZM48.1842 16.5621C48.1842 14.8296 47.4984 13.8111 46.4222 13.8111C45.3459 13.8111 44.6707 14.8611 44.6707 16.5621C44.6707 18.2631 45.3354 19.2921 46.4222 19.2921C47.5089 19.2921 48.1842 18.3261 48.1842 16.5726V16.5621ZM52.5524 21.9906H55.5911C55.7357 22.3104 55.9802 22.5751 56.2882 22.7453C56.5962 22.9156 56.9512 22.9824 57.3004 22.9356C58.5032 22.9356 59.1363 22.2846 59.1363 21.3396V19.5756H59.073C58.8208 20.1163 58.4116 20.5693 57.8981 20.8762C57.3847 21.1832 56.7906 21.33 56.1925 21.2976C53.8818 21.2976 52.3519 19.5441 52.3519 16.5306C52.3519 13.5171 53.808 11.6166 56.2347 11.6166C56.8515 11.5926 57.461 11.7567 57.9815 12.087C58.502 12.4172 58.9086 12.8979 59.1468 13.4646V11.7111H62.3122V21.2661C62.3122 23.5656 60.2758 24.9936 57.2687 24.9936C54.4727 24.9936 52.7317 23.7441 52.5524 22.0011V21.9906ZM59.1468 16.5516C59.1468 15.0186 58.4399 14.0526 57.3215 14.0526C56.2031 14.0526 55.5172 15.0081 55.5172 16.5516C55.5172 18.0951 56.1925 18.9666 57.3215 18.9666C58.4505 18.9666 59.1468 18.1161 59.1468 16.5621V16.5516ZM63.5045 16.5516C63.5045 13.4016 65.4459 11.5221 68.4424 11.5221C71.4389 11.5221 73.3909 13.4016 73.3909 16.5516C73.3909 19.7016 71.4917 21.5916 68.4424 21.5916C65.3931 21.5916 63.5045 19.7646 63.5045 16.5621V16.5516ZM70.2044 16.5516C70.2044 14.8191 69.5186 13.8006 68.4424 13.8006C67.3662 13.8006 66.7437 14.8611 66.7437 16.5726C66.7437 18.2841 67.4084 19.3026 68.4846 19.3026C69.5608 19.3026 70.2044 18.3261 70.2044 16.5726V16.5516ZM74.5937 9.42213C74.5854 9.10409 74.6722 8.79077 74.843 8.52187C75.0139 8.25297 75.2612 8.04061 75.5534 7.91171C75.8457 7.78281 76.1699 7.74318 76.4848 7.79784C76.7998 7.85249 77.0913 7.99898 77.3225 8.21872C77.5537 8.43846 77.7141 8.72157 77.7834 9.03215C77.8527 9.34273 77.8278 9.66679 77.7118 9.96326C77.5958 10.2597 77.394 10.5153 77.1319 10.6974C76.8699 10.8796 76.5593 10.9803 76.2397 10.9866C76.0278 11.0011 75.8152 10.9718 75.6152 10.9007C75.4152 10.8295 75.2322 10.7179 75.0777 10.5729C74.9231 10.428 74.8003 10.2528 74.717 10.0584C74.6337 9.86394 74.5918 9.65448 74.5937 9.44313V9.42213ZM74.5937 11.7321H77.759V21.3711H74.5937V11.7321ZM89.2492 16.5516C89.2492 19.7016 87.8459 21.4971 85.4403 21.4971C84.8234 21.5365 84.2093 21.3865 83.6809 21.0672C83.1525 20.748 82.7354 20.275 82.486 19.7121H82.4226V24.4581H79.2573V11.7111H82.4226V13.4331H82.486C82.7238 12.861 83.133 12.3757 83.6578 12.0431C84.1826 11.7106 84.7976 11.547 85.4192 11.5746C87.8459 11.6166 89.2914 13.4226 89.2914 16.5726L89.2492 16.5516ZM86.0839 16.5516C86.0839 15.0186 85.377 14.0421 84.2691 14.0421C83.1612 14.0421 82.4543 15.0291 82.4437 16.5516C82.4332 18.0741 83.1612 19.0506 84.2691 19.0506C85.377 19.0506 86.0839 18.0951 86.0839 16.5726V16.5516ZM94.6831 11.5116C97.3103 11.5116 98.9035 12.7506 98.9774 14.7351H96.0969C96.0969 14.0526 95.5272 13.6221 94.6514 13.6221C93.7757 13.6221 93.3853 13.9581 93.3853 14.4516C93.3853 14.9451 93.7335 15.1026 94.4404 15.2496L96.4662 15.6591C98.3971 16.0686 99.2201 16.8456 99.2201 18.3051C99.2201 20.3001 97.3947 21.5811 94.7042 21.5811C92.0136 21.5811 90.2516 20.3001 90.1144 18.3366H93.1637C93.2587 19.0506 93.8284 19.4706 94.7569 19.4706C95.6854 19.4706 96.1075 19.1661 96.1075 18.6621C96.1075 18.1581 95.812 18.0531 95.0524 17.8956L93.227 17.5071C91.3384 17.1186 90.3465 16.1211 90.3465 14.6511C90.3677 12.7611 92.0664 11.5326 94.6831 11.5326V11.5116ZM109.782 21.3501H106.732V19.5546H106.669C106.502 20.1575 106.132 20.6851 105.621 21.0499C105.111 21.4147 104.49 21.5948 103.863 21.5601C103.382 21.5873 102.9 21.5115 102.452 21.3377C102.003 21.164 101.596 20.8964 101.26 20.553C100.924 20.2096 100.666 19.7984 100.503 19.3472C100.341 18.896 100.277 18.4153 100.317 17.9376V11.7111H103.483V17.2131C103.483 18.3576 104.074 18.9666 105.055 18.9666C105.285 18.9671 105.512 18.9186 105.722 18.8244C105.932 18.7302 106.119 18.5925 106.271 18.4205C106.423 18.2485 106.536 18.0461 106.603 17.827C106.67 17.6079 106.689 17.3771 106.659 17.1501V11.7111H109.824L109.782 21.3501ZM111.312 11.7111H114.371V13.5696H114.435C114.603 12.9748 114.964 12.4522 115.463 12.0836C115.961 11.715 116.568 11.5212 117.189 11.5326C117.82 11.4823 118.448 11.6704 118.946 12.0595C119.445 12.4486 119.778 13.0102 119.879 13.6326H119.942C120.134 13.0036 120.53 12.4559 121.069 12.0757C121.608 11.6955 122.258 11.5044 122.918 11.5326C123.348 11.5182 123.777 11.5941 124.176 11.7554C124.575 11.9166 124.936 12.1597 125.234 12.4686C125.533 12.7776 125.763 13.1456 125.909 13.5487C126.055 13.9519 126.115 14.3811 126.083 14.8086V21.3711H122.918V15.6486C122.918 14.5986 122.443 14.1156 121.557 14.1156C121.359 14.114 121.163 14.1545 120.983 14.2345C120.802 14.3145 120.641 14.4321 120.51 14.5794C120.379 14.7267 120.281 14.9002 120.224 15.0883C120.166 15.2764 120.149 15.4746 120.175 15.6696V21.3711H117.168V15.6066C117.168 14.6406 116.693 14.1156 115.828 14.1156C115.628 14.1157 115.43 14.1579 115.248 14.2396C115.066 14.3212 114.903 14.4403 114.77 14.5892C114.637 14.738 114.538 14.9131 114.478 15.103C114.419 15.2929 114.4 15.4931 114.424 15.6906V21.3711H111.259L111.312 11.7111Z" fill="#1D2130"/>
<path d="M28.2109 9.21219C27.674 7.99037 26.9633 6.85172 26.1007 5.83119C24.8255 4.27754 23.2342 3.01025 21.4315 2.11273C19.6287 1.2152 17.6554 0.707786 15.6413 0.623883C13.6273 0.53998 11.6183 0.881486 9.74645 1.62593C7.87461 2.37037 6.18242 3.50087 4.78126 4.94302C3.38009 6.38517 2.30171 8.10628 1.6171 9.99305C0.932485 11.8798 0.657159 13.8895 0.809245 15.8898C0.96133 17.8901 1.53738 19.8357 2.49947 21.5984C3.46157 23.3612 4.78789 24.9013 6.39116 26.1172C7.4199 26.913 8.55662 27.5599 9.76753 28.0387C11.4652 28.731 13.2822 29.0877 15.117 29.0887C18.9042 29.0803 22.5336 27.578 25.2096 24.9111C27.8856 22.2441 29.3899 18.6301 29.3926 14.8612C29.3954 12.9171 28.993 10.9936 28.2109 9.21219ZM15.1064 3.51069C16.754 3.51051 18.3817 3.86888 19.8755 4.56069C19.5113 4.71731 19.1283 4.82671 18.736 4.88619C17.4452 5.07214 16.2494 5.66852 15.3271 6.58632C14.4048 7.50412 13.8055 8.69411 13.6187 9.97869C13.5367 10.6991 13.2074 11.3693 12.6865 11.8762C12.1656 12.3831 11.4849 12.6957 10.7593 12.7612C9.4685 12.9471 8.27271 13.5435 7.35044 14.4613C6.42817 15.3791 5.82888 16.5691 5.64203 17.8537C5.57877 18.5387 5.28508 19.1824 4.80849 19.6807C3.98619 17.9516 3.61679 16.0436 3.73467 14.1343C3.85255 12.225 4.45387 10.3763 5.48267 8.76042C6.51148 7.14452 7.93434 5.81388 9.61883 4.89233C11.3033 3.97077 13.1947 3.48826 15.117 3.48969L15.1064 3.51069ZM6.38061 22.2112C6.50722 22.0957 6.63384 21.9907 6.76045 21.8647C7.69914 20.959 8.30167 19.7635 8.46974 18.4732C8.53788 17.7479 8.86329 17.0704 9.38768 16.5622C9.89229 16.0395 10.5715 15.7183 11.2974 15.6592C12.5883 15.4732 13.7841 14.8769 14.7063 13.9591C15.6286 13.0413 16.2279 11.8513 16.4147 10.5667C16.4604 9.80808 16.7875 9.09337 17.3327 8.56119C17.8498 8.04863 18.5354 7.73915 19.2636 7.68969C20.4494 7.52732 21.5554 7.00269 22.4289 6.18819C23.4235 7.00936 24.2662 7.99723 24.919 9.10719C24.8789 9.16111 24.8329 9.21041 24.7818 9.25419C24.2782 9.78149 23.5998 10.1097 22.872 10.1782C21.5799 10.3609 20.3823 10.9562 19.4594 11.8746C18.5366 12.793 17.9383 13.9848 17.7547 15.2707C17.6804 15.9935 17.3572 16.6686 16.8399 17.1814C16.3227 17.6943 15.6431 18.0134 14.9165 18.0847C13.6219 18.2692 12.4216 18.8644 11.494 19.7818C10.5664 20.6993 9.96093 21.89 9.76753 23.1772C9.71074 23.6904 9.53365 24.1831 9.25052 24.6157C8.16797 23.9761 7.19841 23.1637 6.38061 22.2112ZM15.1064 26.2642C14.0357 26.2653 12.9702 26.1169 11.9411 25.8232C12.2931 25.1701 12.522 24.4583 12.6163 23.7232C12.6903 23.0019 13.012 22.3282 13.5271 21.8155C14.0422 21.3029 14.7193 20.9828 15.444 20.9092C16.7368 20.7253 17.935 20.1299 18.8593 19.2119C19.7836 18.2939 20.3845 17.1028 20.5719 15.8167C20.6458 15.0954 20.9675 14.4217 21.4827 13.909C21.9978 13.3964 22.6748 13.0763 23.3996 13.0027C24.3724 12.8768 25.2997 12.5163 26.1007 11.9527C26.5455 13.6305 26.5982 15.3874 26.2547 17.0886C25.9113 18.7898 25.1808 20.3901 24.1193 21.7668C23.0579 23.1434 21.6936 24.2598 20.1313 25.0303C18.569 25.8008 16.8501 26.2049 15.1064 26.2117V26.2642Z" fill="#1D2130"/>
</g>
</svg>
