<svg width="134" height="32" viewBox="0 0 134 32" fill="none" xmlns="http://www.w3.org/2000/svg">
<g opacity="0.6">
<path d="M38.1577 9.82322H41.5447V23.4732H38.1577V9.82322ZM42.8952 18.3387C42.8952 14.9577 45.0054 12.9312 48.1708 12.9312C51.3361 12.9312 53.4463 14.9577 53.4463 18.3387C53.4463 21.7197 51.41 23.7672 48.1708 23.7672C44.9316 23.7672 42.8952 21.7932 42.8952 18.3387ZM50.0911 18.3387C50.0911 16.4802 49.363 15.3882 48.2024 15.3882C47.0418 15.3882 46.3243 16.4382 46.3243 18.3387C46.3243 20.2392 47.0418 21.2787 48.2024 21.2787C49.363 21.2787 50.1122 20.2392 50.1122 18.3492L50.0911 18.3387ZM54.7969 24.1767H58.0677C58.2166 24.5272 58.4767 24.8195 58.8082 25.0091C59.1397 25.1987 59.5244 25.2751 59.9036 25.2267C61.2014 25.2267 61.8767 24.5337 61.8767 23.5047V21.6147H61.8873C61.6078 22.2032 61.1558 22.6937 60.5908 23.0217C60.0258 23.3497 59.3743 23.4998 58.7219 23.4522C56.2424 23.4522 54.5964 21.5727 54.5964 18.3387C54.5964 15.1047 56.1685 13.0887 58.8169 13.0887C59.4859 13.0531 60.1496 13.2248 60.7165 13.5802C61.2834 13.9357 61.7256 14.4573 61.9822 15.0732H61.8873V13.1727H65.2425V23.3997C65.2425 25.8672 63.0479 27.4107 59.8192 27.4107C56.886 27.4002 55.0079 26.0667 54.818 24.1872L54.7969 24.1767ZM61.8873 18.3387C61.8873 16.6902 61.1276 15.6507 59.9247 15.6507C58.7219 15.6507 57.9833 16.7007 57.9833 18.3387C57.9833 19.9767 58.7114 20.9427 59.9247 20.9427C61.1381 20.9427 61.8873 20.0502 61.8873 18.3387ZM66.5825 18.3387C66.5825 14.9577 68.6927 12.9312 71.8581 12.9312C75.0234 12.9312 77.1336 14.9577 77.1336 18.3387C77.1336 21.7197 75.0867 23.7672 71.8581 23.7672C68.6294 23.7672 66.6036 21.7932 66.6036 18.3387H66.5825ZM73.7784 18.3387C73.7784 16.4802 73.0398 15.3882 71.8897 15.3882C70.7397 15.3882 70.0116 16.4382 70.0116 18.3387C70.0116 20.2392 70.7291 21.2787 71.8897 21.2787C73.0504 21.2787 73.7995 20.2392 73.7995 18.3492L73.7784 18.3387ZM78.5053 10.6842C78.4906 10.3409 78.5794 10.001 78.7603 9.70834C78.9413 9.41566 79.2061 9.18355 79.5207 9.04188C79.8353 8.9002 80.1853 8.85544 80.5257 8.91335C80.8661 8.97126 81.1813 9.12919 81.4307 9.36683C81.6802 9.60447 81.8524 9.91094 81.9254 10.2468C81.9984 10.5827 81.9687 10.9326 81.8402 11.2516C81.7117 11.5705 81.4902 11.8439 81.2043 12.0366C80.9183 12.2293 80.581 12.3324 80.2357 12.3327C80.015 12.3383 79.7954 12.3002 79.5896 12.2206C79.3839 12.1411 79.196 12.0216 79.037 11.8693C78.878 11.7169 78.751 11.5346 78.6633 11.333C78.5757 11.1313 78.5291 10.9144 78.5264 10.6947L78.5053 10.6842ZM78.5053 13.1622H81.9344V23.5152H78.5581L78.5053 13.1622ZM94.2687 18.3387C94.2687 21.7092 92.7493 23.6622 90.1643 23.6622C89.5025 23.7028 88.8441 23.5404 88.2781 23.1967C87.712 22.8531 87.2655 22.3449 86.999 21.7407H86.9357V26.8437H83.5487V13.1937H86.9146V15.0417H86.9779C87.2353 14.4256 87.6774 13.9035 88.2438 13.5465C88.8102 13.1895 89.4735 13.015 90.1432 13.0467C92.8021 13.0257 94.332 14.9682 94.332 18.3492L94.2687 18.3387ZM90.8185 18.3387C90.8185 16.7007 90.0482 15.6402 88.856 15.6402C87.6637 15.6402 86.9146 16.6902 86.904 18.3387C86.8935 19.9872 87.6637 21.0267 88.856 21.0267C90.0482 21.0267 90.8818 20.0502 90.8818 18.3492L90.8185 18.3387ZM100.051 12.9207C102.889 12.9207 104.651 14.2542 104.672 16.3962H101.581C101.581 15.6507 100.958 15.1887 100.03 15.1887C99.1011 15.1887 98.658 15.5457 98.658 16.0812C98.658 16.6167 99.0484 16.7847 99.8292 16.9422L102.003 17.3832C104.113 17.8242 104.957 18.6642 104.957 20.2287C104.957 22.3287 103.005 23.7567 100.103 23.7567C97.2019 23.7567 95.3133 22.3707 95.1761 20.2602H98.4575C98.5525 21.0267 99.1644 21.4782 100.156 21.4782C101.148 21.4782 101.612 21.1632 101.612 20.6067C101.612 20.0502 101.296 19.9557 100.483 19.7877L98.5208 19.3782C96.4844 18.9477 95.4188 17.8872 95.4188 16.3017C95.4821 14.2437 97.2547 12.9312 100.114 12.9312L100.051 12.9207ZM116.299 23.5047H113.018V21.5622H112.955C112.771 22.2101 112.371 22.7764 111.821 23.1677C111.27 23.559 110.602 23.7519 109.927 23.7147C109.417 23.7312 108.909 23.6403 108.437 23.4477C107.965 23.2552 107.539 22.9655 107.187 22.5977C106.835 22.2298 106.566 21.7921 106.396 21.3133C106.226 20.8344 106.16 20.3253 106.202 19.8192V13.1727H109.589V19.0947C109.589 20.3127 110.233 20.9742 111.288 20.9742C111.535 20.9724 111.779 20.9177 112.004 20.8138C112.228 20.71 112.428 20.5595 112.589 20.3724C112.75 20.1852 112.869 19.9659 112.937 19.7292C113.006 19.4925 113.023 19.2439 112.986 19.0002V13.1727H116.363L116.299 23.5047ZM117.935 13.1622H121.227V15.1572H121.301C121.483 14.5181 121.872 13.9571 122.409 13.5619C122.945 13.1667 123.598 12.9597 124.266 12.9732C124.936 12.9153 125.603 13.108 126.138 13.5139C126.672 13.9197 127.036 14.5094 127.157 15.1677H127.304C127.515 14.5059 127.94 13.932 128.512 13.5352C129.085 13.1383 129.773 12.9407 130.47 12.9732C130.933 12.9557 131.395 13.0357 131.824 13.208C132.254 13.3802 132.643 13.6409 132.965 13.973C133.286 14.305 133.534 14.701 133.691 15.1348C133.849 15.5687 133.912 16.0307 133.878 16.4907V23.5152H130.47V17.3517C130.47 16.3017 129.974 15.7137 129.014 15.7137C128.801 15.7102 128.589 15.7526 128.395 15.838C128.2 15.9233 128.025 16.0496 127.884 16.2082C127.743 16.3668 127.638 16.5539 127.576 16.7567C127.514 16.9595 127.497 17.1732 127.526 17.3832V23.5152H124.297V17.3202C124.297 16.2702 123.78 15.7137 122.852 15.7137C122.637 15.712 122.424 15.7561 122.227 15.8431C122.03 15.9301 121.855 16.058 121.712 16.2181C121.569 16.3782 121.462 16.5669 121.398 16.7714C121.335 16.976 121.316 17.1918 121.343 17.4042V23.5152H117.956L117.935 13.1622Z" fill="#1D2130"/>
<path d="M31.4577 10.7158C31.4578 8.62599 30.8236 6.58486 29.6383 4.85977C28.4529 3.13468 26.7717 1.80607 24.8147 1.04796C22.8578 0.289858 20.7164 0.137606 18.671 0.611147C16.6256 1.08469 14.7716 2.16194 13.3519 3.70181H0.184082V31.3588H27.9863V18.4333C29.0776 17.462 29.9507 16.2727 30.5489 14.9429C31.147 13.6131 31.4567 12.1727 31.4577 10.7158ZM26.1082 10.7158C26.1103 11.7172 25.8138 12.6968 25.2563 13.5304C24.6987 14.3641 23.9052 15.0144 22.9761 15.399C22.047 15.7837 21.0241 15.8854 20.0369 15.6913C19.0497 15.4973 18.1425 15.0161 17.4302 14.3087C16.7179 13.6013 16.2325 12.6996 16.0354 11.7175C15.8383 10.7355 15.9384 9.71737 16.3231 8.79199C16.7077 7.8666 17.3595 7.07555 18.1961 6.51898C19.0326 5.9624 20.0163 5.66532 21.0226 5.66531C22.3696 5.66531 23.6615 6.19708 24.615 7.14393C25.5684 8.09078 26.1054 9.37537 26.1082 10.7158ZM22.6369 26.0353H5.53351V9.02531H10.7458C10.6451 9.58335 10.5921 10.1489 10.5875 10.7158C10.5903 13.4691 11.6906 16.1088 13.647 18.0557C15.6033 20.0026 18.2559 21.0975 21.0226 21.1003C21.5635 21.0975 22.1033 21.0518 22.6369 20.9638V26.0353Z" fill="#1D2130"/>
</g>
</svg>
