<svg width="124" height="26" viewBox="0 0 124 26" fill="none" xmlns="http://www.w3.org/2000/svg">
<g opacity="0.6">
<path d="M40.0897 20.5433C39.4654 20.5768 38.848 20.4009 38.337 20.0441C38.1235 19.8872 37.9517 19.6812 37.8365 19.4439C37.7213 19.2065 37.6662 18.9449 37.6759 18.6817V9.04088C37.6708 9.00007 37.6751 8.95863 37.6886 8.91974C37.7021 8.88084 37.7244 8.84551 37.7537 8.81643C37.7831 8.78734 37.8187 8.76528 37.858 8.75191C37.8972 8.73854 37.939 8.73422 37.9802 8.73928H39.7433C39.9427 8.73928 40.0372 8.84328 40.0372 9.04088V17.9329C40.0372 18.3281 40.2156 18.5257 40.5829 18.5257C40.7386 18.532 40.8944 18.5145 41.0447 18.4737C41.2546 18.4737 41.37 18.5361 41.3805 18.7233L41.5379 20.0233C41.5455 20.0612 41.5448 20.1002 41.5358 20.1378C41.5269 20.1754 41.5099 20.2107 41.486 20.2413C41.4621 20.2718 41.4319 20.2969 41.3974 20.315C41.363 20.333 41.325 20.3434 41.286 20.3457C40.8999 20.4721 40.4963 20.5387 40.0897 20.5433Z" fill="#1D2130"/>
<path d="M50.0072 19.4305C49.1212 20.1559 48.0079 20.5527 46.8587 20.5527C45.7095 20.5527 44.5963 20.1559 43.7103 19.4305C42.9317 18.6516 42.4948 17.5994 42.4948 16.5029C42.4948 15.4065 42.9317 14.3543 43.7103 13.5753C44.598 12.8537 45.7106 12.4593 46.8587 12.4593C48.0069 12.4593 49.1195 12.8537 50.0072 13.5753C50.7679 14.3615 51.1926 15.4086 51.1926 16.4977C51.1926 17.5869 50.7679 18.634 50.0072 19.4201V19.4305ZM45.3685 18.0577C45.7796 18.4268 46.3145 18.6312 46.8692 18.6312C47.424 18.6312 47.9589 18.4268 48.37 18.0577C48.7421 17.6338 48.947 17.0908 48.947 16.5289C48.947 15.9671 48.7421 15.4241 48.37 15.0001C47.9589 14.6311 47.424 14.4267 46.8692 14.4267C46.3145 14.4267 45.7796 14.6311 45.3685 15.0001C44.9964 15.4241 44.7915 15.9671 44.7915 16.5289C44.7915 17.0908 44.9964 17.6338 45.3685 18.0577Z" fill="#1D2130"/>
<path d="M60.9007 12.7225C61.1001 12.7225 61.1945 12.8265 61.1945 13.0241V20.4809C61.2128 20.9842 61.1178 21.4852 60.9163 21.9475C60.7148 22.4098 60.4119 22.8219 60.0296 23.1537C59.181 23.8707 58.0897 24.2423 56.9756 24.1937C55.9693 24.2287 54.9765 23.9564 54.1316 23.4137C53.7708 23.1789 53.4625 22.8731 53.226 22.5153C52.9895 22.1574 52.8298 21.7553 52.7568 21.3337C52.7568 21.1257 52.7568 21.0321 53.0401 21.0321H54.8032C54.8781 21.0346 54.9506 21.0585 55.0121 21.101C55.0735 21.1434 55.1213 21.2026 55.1496 21.2713C55.2639 21.5871 55.4919 21.8501 55.7897 22.0097C56.1527 22.1953 56.5567 22.2882 56.9651 22.2801C57.2116 22.2935 57.4582 22.258 57.6906 22.1759C57.9231 22.0938 58.1367 21.9665 58.319 21.8017C58.4855 21.6292 58.615 21.4251 58.6998 21.2017C58.7846 20.9783 58.8228 20.7401 58.8122 20.5017V19.8465C58.1809 20.3066 57.4126 20.5445 56.6293 20.5225C56.0811 20.5422 55.5345 20.452 55.0223 20.2572C54.5101 20.0624 54.0429 19.7671 53.6488 19.3889C52.8922 18.6132 52.4692 17.5765 52.4692 16.4977C52.4692 15.4188 52.8922 14.3822 53.6488 13.6065C54.0448 13.2316 54.5126 12.9392 55.0245 12.7463C55.5363 12.5533 56.082 12.4639 56.6293 12.4833C57.4353 12.4622 58.2243 12.7155 58.8647 13.2009V13.0345C58.8599 12.9946 58.8641 12.9542 58.877 12.9162C58.8899 12.8781 58.9112 12.8434 58.9393 12.8145C58.9675 12.7856 59.0017 12.7633 59.0396 12.7492C59.0776 12.7351 59.1182 12.7295 59.1585 12.7329L60.9007 12.7225ZM56.8287 18.6713C57.0991 18.6796 57.368 18.6289 57.6164 18.5229C57.8649 18.4169 58.0868 18.2581 58.2665 18.0577C58.6154 17.6112 58.8047 17.0624 58.8047 16.4977C58.8047 15.9329 58.6154 15.3842 58.2665 14.9377C58.0874 14.74 57.8669 14.5836 57.6203 14.4794C57.3737 14.3752 57.1071 14.3257 56.8392 14.3345C56.5657 14.326 56.2936 14.3764 56.0418 14.4824C55.7899 14.5883 55.5642 14.7472 55.3804 14.9481C54.9939 15.3752 54.7906 15.9348 54.8137 16.5081C54.7948 17.0757 54.9935 17.6294 55.3699 18.0577C55.5542 18.258 55.7799 18.4165 56.0317 18.5224C56.2834 18.6283 56.5553 18.6791 56.8287 18.6713Z" fill="#1D2130"/>
<path d="M70.2514 19.4305C69.3638 20.1521 68.2511 20.5465 67.103 20.5465C65.9549 20.5465 64.8422 20.1521 63.9546 19.4305C63.1932 18.6426 62.7682 17.5938 62.7682 16.5029C62.7682 15.412 63.1932 14.3632 63.9546 13.5753C64.8431 12.8555 65.9554 12.4623 67.103 12.4623C68.2506 12.4623 69.3629 12.8555 70.2514 13.5753C71.0121 14.3614 71.4369 15.4085 71.4369 16.4977C71.4369 17.5869 71.0121 18.6339 70.2514 19.4201V19.4305ZM65.6023 18.0577C65.8035 18.2474 66.0406 18.3956 66.3 18.4938C66.5594 18.5919 66.8359 18.6381 67.1135 18.6297C67.3893 18.6368 67.6638 18.5899 67.9213 18.4917C68.1788 18.3936 68.4143 18.2461 68.6142 18.0577C68.9803 17.6309 69.1812 17.089 69.1812 16.5289C69.1812 15.9688 68.9803 15.4269 68.6142 15.0001C68.4143 14.8117 68.1788 14.6642 67.9213 14.566C67.6638 14.4679 67.3893 14.421 67.1135 14.4281C66.8359 14.4196 66.5594 14.4658 66.3 14.564C66.0406 14.6622 65.8035 14.8104 65.6023 15.0001C65.2362 15.4269 65.0353 15.9688 65.0353 16.5289C65.0353 17.089 65.2362 17.6309 65.6023 18.0577Z" fill="#1D2130"/>
<path d="M75.226 10.9545C74.9485 11.1952 74.5924 11.3278 74.2237 11.3278C73.855 11.3278 73.4989 11.1952 73.2215 10.9545C73.0957 10.8369 72.9955 10.695 72.927 10.5377C72.8585 10.3803 72.8232 10.2107 72.8232 10.0393C72.8232 9.86794 72.8585 9.69836 72.927 9.54098C72.9955 9.38361 73.0957 9.24175 73.2215 9.12412C73.5018 8.88951 73.8568 8.7608 74.2237 8.7608C74.5906 8.7608 74.9457 8.88951 75.226 9.12412C75.3517 9.24175 75.4519 9.38361 75.5204 9.54098C75.5889 9.69836 75.6243 9.86794 75.6243 10.0393C75.6243 10.2107 75.5889 10.3803 75.5204 10.5377C75.4519 10.695 75.3517 10.8369 75.226 10.9545ZM75.4463 20.5433C74.8225 20.5736 74.2061 20.3981 73.6937 20.0441C73.4835 19.885 73.3147 19.6782 73.2015 19.4412C73.0883 19.2042 73.034 18.9438 73.0431 18.6817V13.0241C73.038 12.9833 73.0423 12.9419 73.0558 12.903C73.0693 12.8641 73.0916 12.8288 73.1209 12.7997C73.1503 12.7706 73.1859 12.7485 73.2252 12.7352C73.2644 12.7218 73.3062 12.7175 73.3474 12.7225H75.1105C75.3099 12.7225 75.4044 12.8265 75.4044 13.0241V17.9329C75.4044 18.3281 75.5828 18.5257 75.9396 18.5257C76.0987 18.5314 76.2579 18.5139 76.4119 18.4737C76.6218 18.4737 76.7372 18.5361 76.7477 18.7233L76.9051 20.0233C76.9127 20.0612 76.912 20.1003 76.903 20.1379C76.894 20.1755 76.8771 20.2108 76.8532 20.2413C76.8293 20.2719 76.7991 20.297 76.7646 20.315C76.7301 20.333 76.6922 20.3435 76.6532 20.3457C76.2636 20.4729 75.8565 20.5395 75.4463 20.5433Z" fill="#1D2130"/>
<path d="M83.3909 12.4729C83.9417 12.4514 84.4911 12.5397 85.0067 12.7326C85.5223 12.9256 85.9936 13.2192 86.3924 13.5961C87.1346 14.3854 87.5472 15.4241 87.5472 16.5029C87.5472 17.5818 87.1346 18.6205 86.3924 19.4097C85.9955 19.79 85.5248 20.0865 85.0089 20.2814C84.493 20.4762 83.9426 20.5653 83.3909 20.5433C82.605 20.5607 81.8349 20.3233 81.1975 19.8673V23.6217C81.1975 23.8193 81.0926 23.9129 80.8932 23.9129H79.1301C79.0899 23.9204 79.0484 23.918 79.0093 23.906C78.9702 23.894 78.9347 23.8728 78.9057 23.8441C78.8768 23.8154 78.8553 23.7802 78.8432 23.7414C78.8311 23.7027 78.8287 23.6616 78.8362 23.6217V15.0937C78.8486 15.0103 78.8411 14.9252 78.8143 14.8452C78.7876 14.7651 78.7423 14.6924 78.6822 14.6328C78.622 14.5732 78.5486 14.5283 78.4679 14.5018C78.3871 14.4753 78.3012 14.4679 78.217 14.4801H77.8707C77.6398 14.4801 77.5244 14.3969 77.5244 14.2305V13.0033C77.519 12.9274 77.5399 12.8519 77.5839 12.7895C77.6278 12.727 77.692 12.6814 77.7658 12.6601C78.1288 12.5294 78.513 12.4659 78.8992 12.4729C79.2843 12.4392 79.6709 12.5201 80.0093 12.7054C80.3477 12.8907 80.6226 13.1719 80.7987 13.5129C81.1368 13.1741 81.541 12.9071 81.9867 12.7283C82.4324 12.5494 82.9102 12.4626 83.3909 12.4729ZM81.7538 18.0577C81.9409 18.2515 82.1657 18.4058 82.4146 18.5111C82.6635 18.6165 82.9314 18.6708 83.202 18.6708C83.4727 18.6708 83.7406 18.6165 83.9895 18.5111C84.2384 18.4058 84.4632 18.2515 84.6503 18.0577C85.0445 17.6221 85.2516 17.0512 85.2275 16.4665C85.255 15.8814 85.0474 15.3092 84.6503 14.8753C84.4632 14.6815 84.2384 14.5273 83.9895 14.4219C83.7406 14.3166 83.4727 14.2623 83.202 14.2623C82.9314 14.2623 82.6635 14.3166 82.4146 14.4219C82.1657 14.5273 81.9409 14.6815 81.7538 14.8753C81.3719 15.3169 81.1731 15.8855 81.1975 16.4665C81.1763 17.0471 81.3746 17.6146 81.7538 18.0577Z" fill="#1D2130"/>
<path d="M92.5003 20.5433C91.5581 20.5816 90.6239 20.3583 89.8031 19.8985C89.4738 19.7019 89.1933 19.4343 88.9826 19.1157C88.7718 18.797 88.6362 18.4354 88.5857 18.0577C88.5857 17.8497 88.6592 17.7457 88.8901 17.7457H90.4328C90.5062 17.7485 90.5774 17.7714 90.6385 17.8117C90.6996 17.8521 90.7483 17.9084 90.7791 17.9745C90.9995 18.5361 91.5767 18.8169 92.5003 18.8169C92.8224 18.8315 93.1432 18.7672 93.4343 18.6297C93.5348 18.5847 93.621 18.5136 93.6839 18.4238C93.7467 18.3341 93.7838 18.2291 93.7911 18.1201C93.7911 17.8497 93.6232 17.6625 93.2874 17.5377C92.889 17.4063 92.4772 17.3191 92.0595 17.2777C91.5646 17.2222 91.0739 17.1353 90.5902 17.0177C90.1199 16.9122 89.6922 16.6695 89.3623 16.3209C89.1681 16.0839 89.0251 15.8099 88.9422 15.5159C88.8594 15.2218 88.8385 14.9141 88.8808 14.6117C88.9232 14.3093 89.0278 14.0188 89.1883 13.7582C89.3487 13.4976 89.5616 13.2725 89.8136 13.0969C90.57 12.6194 91.4576 12.3867 92.3533 12.4313C93.2206 12.4022 94.0787 12.6148 94.8301 13.0449C95.1329 13.2148 95.3937 13.4496 95.5934 13.7321C95.7931 14.0145 95.9267 14.3376 95.9845 14.6777C95.9845 14.8857 95.8901 14.9897 95.7011 14.9897H94.1479C94.0825 14.9935 94.0175 14.9777 93.9613 14.9443C93.9051 14.9109 93.8604 14.8615 93.8331 14.8025C93.7293 14.5561 93.5339 14.3588 93.2874 14.2513C93.0092 14.1071 92.6986 14.0355 92.3848 14.0433C92.0772 14.0267 91.7703 14.0875 91.4928 14.2201C91.395 14.2575 91.3107 14.323 91.2509 14.4083C91.191 14.4935 91.1583 14.5946 91.1569 14.6985C91.1636 14.8407 91.2162 14.977 91.3068 15.0875C91.3975 15.1979 91.5215 15.2766 91.6607 15.3121C92.0637 15.4626 92.4827 15.5673 92.9095 15.6241C93.4004 15.6881 93.8873 15.7783 94.3683 15.8945C94.8387 16 95.2663 16.2427 95.5962 16.5913C95.7726 16.7833 95.9089 17.0081 95.9972 17.2527C96.0855 17.4972 96.124 17.7567 96.1104 18.0161C96.1195 18.3756 96.0343 18.7313 95.8633 19.0484C95.6922 19.3656 95.4411 19.6334 95.1344 19.8257C94.3503 20.3245 93.4315 20.5748 92.5003 20.5433Z" fill="#1D2130"/>
<path d="M107.203 20.0233C107.209 20.0602 107.208 20.0979 107.199 20.1343C107.19 20.1706 107.174 20.2048 107.151 20.2348C107.129 20.2648 107.1 20.2901 107.068 20.3091C107.035 20.3282 106.999 20.3406 106.962 20.3457C106.579 20.4697 106.179 20.5363 105.776 20.5433C105.377 20.5842 104.975 20.5224 104.607 20.3639C104.239 20.2054 103.919 19.9555 103.677 19.6385C102.936 20.2701 101.977 20.5942 101.001 20.5433C100.548 20.564 100.095 20.4905 99.6721 20.3275C99.2492 20.1645 98.8654 19.9156 98.5453 19.5969C98.2274 19.2629 97.9808 18.8688 97.8203 18.4381C97.6598 18.0074 97.5887 17.549 97.6113 17.0905V13.0241C97.6113 12.8265 97.7057 12.7225 97.9051 12.7225H99.6682C99.8676 12.7225 99.9621 12.8265 99.9621 13.0241V16.7785C99.9429 17.2462 100.104 17.7037 100.413 18.0577C100.568 18.2199 100.755 18.3474 100.963 18.4317C101.172 18.516 101.396 18.5552 101.62 18.5465C101.85 18.5565 102.08 18.5212 102.296 18.4426C102.512 18.3641 102.711 18.2438 102.88 18.0889C103.04 17.9256 103.164 17.7315 103.245 17.5186C103.326 17.3057 103.363 17.0786 103.352 16.8513V13.0241C103.352 12.8265 103.446 12.7225 103.646 12.7225H105.43C105.629 12.7225 105.724 12.8265 105.724 13.0241V17.9225C105.724 18.3281 105.902 18.5257 106.248 18.5257C106.411 18.5319 106.574 18.5144 106.731 18.4737C106.771 18.4627 106.813 18.4607 106.853 18.4679C106.894 18.4751 106.932 18.4913 106.965 18.5154C106.999 18.5394 107.026 18.5706 107.045 18.6066C107.065 18.6426 107.076 18.6825 107.077 18.7233L107.203 20.0233Z" fill="#1D2130"/>
<path d="M123.879 20.0233C123.889 20.0606 123.89 20.0994 123.882 20.137C123.875 20.1747 123.859 20.2102 123.836 20.241C123.812 20.2718 123.783 20.2972 123.749 20.3153C123.715 20.3334 123.677 20.3438 123.638 20.3457C123.248 20.4714 122.841 20.5381 122.431 20.5433C121.807 20.5752 121.19 20.3995 120.679 20.0441C120.457 19.8919 120.277 19.6879 120.155 19.4502C120.032 19.2126 119.97 18.9486 119.975 18.6817V16.2377C119.998 15.7714 119.84 15.3141 119.535 14.9585C119.387 14.796 119.206 14.6678 119.002 14.5833C118.799 14.4988 118.579 14.46 118.359 14.4697C118.161 14.4623 117.963 14.4996 117.781 14.5789C117.6 14.6582 117.438 14.7773 117.31 14.9273C117.033 15.2758 116.891 15.7113 116.911 16.1545V19.9921C116.911 20.1897 116.817 20.2937 116.617 20.2937H114.843C114.802 20.2988 114.76 20.2945 114.721 20.2811C114.682 20.2677 114.646 20.2457 114.617 20.2166C114.588 20.1875 114.565 20.1522 114.552 20.1133C114.538 20.0744 114.534 20.0329 114.539 19.9921V16.2377C114.562 15.7765 114.417 15.3224 114.13 14.9585C114.002 14.8057 113.842 14.6826 113.66 14.5981C113.479 14.5137 113.281 14.4698 113.08 14.4697C112.866 14.4612 112.653 14.4975 112.454 14.5764C112.255 14.6552 112.075 14.7748 111.926 14.9273C111.626 15.2647 111.471 15.7054 111.496 16.1545V19.9921C111.501 20.0329 111.496 20.0744 111.483 20.1133C111.469 20.1522 111.447 20.1875 111.418 20.2166C111.388 20.2457 111.353 20.2677 111.314 20.2811C111.274 20.2945 111.233 20.2988 111.191 20.2937H109.481C109.281 20.2937 109.187 20.1897 109.187 19.9921V15.0937C109.199 15.0103 109.192 14.9252 109.165 14.8452C109.138 14.7651 109.093 14.6924 109.033 14.6328C108.973 14.5732 108.899 14.5283 108.818 14.5018C108.738 14.4753 108.652 14.4679 108.568 14.4801H108.221C107.99 14.4801 107.875 14.3969 107.875 14.2305V13.0033C107.87 12.9274 107.891 12.8519 107.934 12.7894C107.978 12.727 108.043 12.6813 108.116 12.6601C108.479 12.5294 108.864 12.4659 109.25 12.4729C109.621 12.4416 109.993 12.5149 110.323 12.6842C110.654 12.8535 110.929 13.1119 111.118 13.4297C111.472 13.0972 111.891 12.8406 112.35 12.6759C112.809 12.5113 113.297 12.4422 113.784 12.4729C114.256 12.4501 114.728 12.5379 115.16 12.7295C115.592 12.921 115.973 13.2108 116.271 13.5753C116.618 13.2013 117.045 12.9083 117.52 12.7177C117.996 12.527 118.508 12.4434 119.02 12.4729C119.478 12.4517 119.936 12.5248 120.364 12.6877C120.792 12.8506 121.182 13.0997 121.508 13.4193C121.827 13.7526 122.074 14.1467 122.234 14.5775C122.395 15.0084 122.465 15.467 122.442 15.9257V17.9329C122.442 18.3281 122.62 18.5257 122.956 18.5257C123.119 18.5332 123.281 18.5157 123.439 18.4737C123.656 18.4737 123.771 18.5569 123.785 18.7233L123.879 20.0233Z" fill="#1D2130"/>
<path d="M0.818467 11.3705C1.59273 8.2866 3.38592 5.54801 5.9125 3.59084C8.43908 1.63367 11.5538 0.570435 14.7607 0.570435C17.9676 0.570435 21.0823 1.63367 23.6089 3.59084C26.1355 5.54801 27.9287 8.2866 28.7029 11.3705H27.4436C25.3191 11.3395 23.2382 11.9687 21.4931 13.1697C21.3923 13.242 21.2872 13.308 21.1782 13.3674H21.0313C20.9223 13.308 20.8172 13.242 20.7164 13.1697C18.9558 11.9965 16.8823 11.3699 14.7607 11.3699C12.6391 11.3699 10.5655 11.9965 8.80494 13.1697C8.70423 13.242 8.59908 13.308 8.4901 13.3674H8.34318C8.2342 13.308 8.12905 13.242 8.02834 13.1697C6.28321 11.9687 4.2023 11.3395 2.07783 11.3705H0.818467ZM25.1767 17.8914C25.8232 17.3924 26.6244 17.1314 27.4436 17.153H29.1332V13.8145H27.4436C26.0008 13.7972 24.591 14.2423 23.4241 15.0833C22.7674 15.5631 21.973 15.8219 21.1572 15.8219C20.3414 15.8219 19.547 15.5631 18.8904 15.0833C17.6939 14.258 16.271 13.8155 14.8132 13.8155C13.3553 13.8155 11.9325 14.258 10.736 15.0833C10.0793 15.5631 9.28493 15.8219 8.46911 15.8219C7.6533 15.8219 6.85891 15.5631 6.20226 15.0833C5.02097 14.2315 3.59096 13.7859 2.13031 13.8145H0.388184V17.153H2.07783C2.89695 17.1314 3.6982 17.3924 4.34469 17.8914C5.539 18.7173 6.96028 19.1601 8.41664 19.1601C9.873 19.1601 11.2943 18.7173 12.4886 17.8914C13.1359 17.394 13.9366 17.1331 14.7554 17.153C15.5748 17.1297 16.3767 17.3909 17.0223 17.8914C18.2188 18.7167 19.6417 19.1592 21.0995 19.1592C22.5573 19.1592 23.9802 18.7167 25.1767 17.8914ZM25.1767 23.861C25.8232 23.362 26.6244 23.101 27.4436 23.1226H29.1332V19.7842H27.4436C26.0008 19.7669 24.591 20.2119 23.4241 21.053C22.7674 21.5327 21.973 21.7915 21.1572 21.7915C20.3414 21.7915 19.547 21.5327 18.8904 21.053C17.6939 20.2276 16.271 19.7851 14.8132 19.7851C13.3553 19.7851 11.9325 20.2276 10.736 21.053C10.0793 21.5327 9.28493 21.7915 8.46911 21.7915C7.6533 21.7915 6.85891 21.5327 6.20226 21.053C5.02097 20.2011 3.59096 19.7555 2.13031 19.7842H0.388184V23.1226H2.07783C2.89695 23.101 3.6982 23.362 4.34469 23.861C5.539 24.6869 6.96028 25.1297 8.41664 25.1297C9.873 25.1297 11.2943 24.6869 12.4886 23.861C13.1359 23.3636 13.9366 23.1027 14.7554 23.1226C15.5748 23.0993 16.3767 23.3605 17.0223 23.861C18.2188 24.6863 19.6417 25.1288 21.0995 25.1288C22.5573 25.1288 23.9802 24.6863 25.1767 23.861Z" fill="#1D2130"/>
</g>
</svg>
