<svg width="143" height="29" viewBox="0 0 143 29" fill="none" xmlns="http://www.w3.org/2000/svg">
<g opacity="0.6">
<path d="M21.3558 13.1385C20.9581 13.5388 20.6535 14.022 20.4638 14.5536C20.274 15.0852 20.2038 15.6521 20.2581 16.2139L20.2392 16.195C20.295 16.8564 20.2058 17.5219 19.978 18.1453C19.7502 18.7686 19.3891 19.3346 18.92 19.8039C18.451 20.2733 17.8852 20.6345 17.2622 20.8624C16.6391 21.0904 15.9739 21.1796 15.3129 21.1237L15.3318 21.1426C14.5411 21.069 13.7469 21.2412 13.0576 21.6356C12.3683 22.0301 11.8173 22.6277 11.4799 23.3469C11.1424 24.0661 11.0349 24.872 11.172 25.6545C11.3091 26.4371 11.6841 27.1584 12.2459 27.7199C12.8076 28.2815 13.5289 28.656 14.3112 28.7924C15.0935 28.9289 15.8989 28.8206 16.6174 28.4823C17.336 28.1441 17.9328 27.5923 18.3264 26.9023C18.7201 26.2123 18.8914 25.4176 18.8171 24.6265L18.8371 24.6454C18.7813 23.9841 18.8704 23.3185 19.0982 22.6952C19.3261 22.0719 19.6871 21.5058 20.1562 21.0365C20.6253 20.5672 21.191 20.206 21.8141 19.978C22.4371 19.7501 23.1023 19.6609 23.7633 19.7167L23.7434 19.6978C24.3893 19.7559 25.0394 19.65 25.6335 19.3898C26.2276 19.1296 26.7464 18.7236 27.1419 18.2094C27.5373 17.6951 27.7967 17.0893 27.8958 16.4481C27.995 15.8069 27.9308 15.1511 27.7091 14.5413C27.4874 13.9316 27.1155 13.3877 26.6278 12.96C26.1401 12.5323 25.5524 12.2348 24.9192 12.0949C24.2859 11.955 23.6276 11.9773 23.0052 12.1597C22.3829 12.3421 21.8166 12.6788 21.359 13.1385H21.3558Z" fill="#1D2130"/>
<path d="M13.6137 18.6667L13.5938 18.6478C14.1556 18.7044 14.723 18.6354 15.2549 18.4458C15.7868 18.2562 16.2699 17.9507 16.6694 17.5513C17.0688 17.152 17.3745 16.6689 17.5645 16.1368C17.7544 15.6048 17.8238 15.0372 17.7676 14.4751L17.7875 14.494C17.7317 13.8326 17.8209 13.1671 18.0487 12.5438C18.2765 11.9204 18.6376 11.3544 19.1067 10.8851C19.5757 10.4158 20.1415 10.0545 20.7645 9.82658C21.3876 9.59863 22.0528 9.50945 22.7138 9.56528L22.6939 9.54638C23.4846 9.62068 24.2791 9.44911 24.9688 9.05509C25.6585 8.66106 26.21 8.06375 26.5479 7.34464C26.8859 6.62553 26.9939 5.81962 26.8572 5.03684C26.7205 4.25406 26.3458 3.53251 25.7842 2.97062C25.2226 2.40873 24.5014 2.03385 23.719 1.8971C22.9366 1.76036 22.1311 1.86842 21.4123 2.20654C20.6936 2.54466 20.0966 3.09638 19.7027 3.78644C19.3089 4.47651 19.1374 5.27132 19.2117 6.06248L19.1928 6.04253C19.2488 6.70391 19.1598 7.36955 18.932 7.99296C18.7042 8.61637 18.3432 9.18252 17.8741 9.65186C17.405 10.1212 16.8391 10.4824 16.216 10.7103C15.5929 10.9382 14.9276 11.0272 14.2665 10.9712L14.2854 10.9912C13.7236 10.9345 13.1562 11.0035 12.6243 11.1932C12.0924 11.3828 11.6093 11.6883 11.2098 12.0876C10.8104 12.4869 10.5047 12.9701 10.3147 13.5021C10.1248 14.0341 10.0554 14.6017 10.1116 15.1639L10.0927 15.145C10.1483 15.8063 10.0591 16.4718 9.83118 17.095C9.60328 17.7182 9.24222 18.2842 8.77319 18.7535C8.30416 19.2228 7.73844 19.584 7.11551 19.812C6.49258 20.04 5.82743 20.1293 5.16645 20.0737L5.18534 20.0926C4.39458 20.0183 3.60015 20.1899 2.91043 20.5839C2.2207 20.9779 1.66925 21.5752 1.3313 22.2943C0.993348 23.0134 0.885342 23.8193 1.02202 24.6021C1.15869 25.3849 1.53339 26.1064 2.09501 26.6683C2.65662 27.2302 3.37781 27.6051 4.16021 27.7419C4.94261 27.8786 5.74812 27.7705 6.46688 27.4324C7.18563 27.0943 7.78264 26.5426 8.17648 25.8525C8.57031 25.1625 8.74179 24.3676 8.66753 23.5765L8.68747 23.5954C8.63167 22.934 8.7208 22.2685 8.94864 21.6452C9.17647 21.0218 9.53753 20.4558 10.0066 19.9865C10.4757 19.5172 11.0415 19.1559 11.6645 18.928C12.2875 18.7 12.9527 18.6109 13.6137 18.6667Z" fill="#1D2130"/>
<path d="M6.58015 16.5594C6.97793 16.1591 7.28248 15.6759 7.47205 15.1443C7.66163 14.6126 7.73157 14.0457 7.67686 13.4839L7.6968 13.5028C7.64096 12.8413 7.73013 12.1755 7.95809 11.552C8.18605 10.9286 8.54729 10.3624 9.0166 9.89303C9.48591 9.42369 10.052 9.0625 10.6752 8.83469C11.2985 8.60689 11.964 8.51796 12.6252 8.57411L12.6052 8.55521C13.3957 8.6293 14.1898 8.45764 14.8792 8.06364C15.5686 7.66965 16.1198 7.07248 16.4575 6.3536C16.7953 5.63471 16.9032 4.82909 16.7665 4.04661C16.6299 3.26412 16.2553 2.54285 15.6939 1.98116C15.1325 1.41947 14.4115 1.04471 13.6294 0.907975C12.8473 0.77124 12.0421 0.879191 11.3236 1.21711C10.605 1.55502 10.0082 2.10645 9.61437 2.79619C9.22057 3.48594 9.049 4.28043 9.12305 5.07131L9.10416 5.05241C9.15996 5.71375 9.07083 6.37932 8.84299 7.00264C8.61516 7.62596 8.2541 8.19203 7.78503 8.66133C7.31596 9.13064 6.75017 9.49187 6.12715 9.71982C5.50413 9.94776 4.8389 10.0369 4.17788 9.98111L4.19677 10C3.55089 9.94206 2.90084 10.0482 2.30685 10.3085C1.71286 10.5688 1.19416 10.9749 0.79881 11.4892C0.403458 12.0034 0.144249 12.6092 0.0452039 13.2504C-0.0538415 13.8916 0.0104804 14.5474 0.23221 15.1571C0.453939 15.7668 0.825902 16.3106 1.31363 16.7382C1.80136 17.1658 2.38907 17.4633 3.0223 17.6031C3.65553 17.7429 4.3138 17.7206 4.9361 17.5381C5.55841 17.3557 6.12461 17.019 6.58225 16.5594H6.58015Z" fill="#1D2130"/>
<path d="M39.09 6.08663H42.2069V21.2623H39.09V6.08663Z" fill="#1D2130"/>
<path d="M43.9722 16.0658C43.9678 14.9753 44.2871 13.9079 44.8895 12.999C45.4919 12.0901 46.3504 11.3806 47.3562 10.9602C48.362 10.5398 49.4699 10.4276 50.5395 10.6376C51.6092 10.8477 52.5924 11.3707 53.3648 12.1403C54.1371 12.9099 54.6637 13.8915 54.878 14.9608C55.0923 16.0301 54.9845 17.139 54.5684 18.147C54.1522 19.155 53.4465 20.0167 52.5404 20.6231C51.6344 21.2295 50.5689 21.5531 49.4788 21.5531C48.7553 21.5614 48.0373 21.4253 47.3669 21.1527C46.6965 20.8801 46.0872 20.4766 45.5745 19.9657C45.0618 19.4548 44.656 18.8468 44.3809 18.1772C44.1058 17.5076 43.9668 16.7898 43.9722 16.0658ZM51.8685 16.0658C51.8555 15.5958 51.7043 15.1399 51.4338 14.7554C51.1633 14.3708 50.7854 14.0746 50.3475 13.9036C49.9096 13.7327 49.4311 13.6948 48.9718 13.7945C48.5124 13.8942 48.0927 14.1272 47.7649 14.4643C47.4372 14.8014 47.2161 15.2276 47.1292 15.6898C47.0423 16.152 47.0935 16.6295 47.2764 17.0627C47.4593 17.4959 47.7657 17.8655 48.1575 18.1254C48.5492 18.3853 49.0088 18.5239 49.4788 18.5239C49.8007 18.5325 50.1209 18.4743 50.4192 18.3529C50.7175 18.2315 50.9874 18.0496 51.2119 17.8187C51.4364 17.5877 51.6107 17.3127 51.7237 17.0111C51.8367 16.7094 51.886 16.3875 51.8685 16.0658Z" fill="#1D2130"/>
<path d="M67.4082 10.8684V20.7384C67.4082 24.2307 64.6858 25.707 61.9225 25.707C60.9496 25.7798 59.9754 25.5832 59.1068 25.1387C58.2382 24.6941 57.5087 24.0189 56.9983 23.187L59.6577 21.6487C59.8722 22.0824 60.214 22.4401 60.6373 22.6741C61.0606 22.9081 61.5453 23.0072 62.0264 22.9581C62.3339 23.0007 62.647 22.9736 62.9427 22.8788C63.2383 22.784 63.5088 22.6239 63.7342 22.4104C63.9596 22.1968 64.1342 21.9353 64.2449 21.6452C64.3557 21.355 64.3998 21.0437 64.3741 20.7342V19.7839C64.0091 20.2307 63.5445 20.5857 63.0176 20.8204C62.4907 21.0551 61.9161 21.1629 61.34 21.1353C59.9692 21.092 58.669 20.5168 57.7146 19.5313C56.7602 18.5459 56.2265 17.2275 56.2265 15.8553C56.2265 14.4831 56.7602 13.1648 57.7146 12.1793C58.669 11.1939 59.9692 10.6187 61.34 10.5754C61.9161 10.5477 62.4907 10.6556 63.0176 10.8903C63.5445 11.1249 64.0091 11.4799 64.3741 11.9268V10.8663L67.4082 10.8684ZM64.3751 15.8569C64.3961 15.3543 64.2662 14.857 64.0023 14.4289C63.7383 14.0008 63.3523 13.6615 62.894 13.4547C62.4357 13.2479 61.926 13.1831 61.4306 13.2686C60.9351 13.354 60.4766 13.5859 60.1139 13.9343C59.7513 14.2827 59.5012 14.7317 59.3958 15.2236C59.2904 15.7154 59.3345 16.2276 59.5225 16.6941C59.7105 17.1606 60.0337 17.5602 60.4506 17.8414C60.8674 18.1226 61.3589 18.2725 61.8616 18.2719C62.1891 18.2948 62.5178 18.2488 62.8264 18.1368C63.1351 18.0249 63.4169 17.8495 63.6536 17.622C63.8904 17.3945 64.077 17.1199 64.2012 16.8159C64.3255 16.5119 64.3847 16.1852 64.3751 15.8569Z" fill="#1D2130"/>
<path d="M69.1734 16.0658C69.169 14.9753 69.4882 13.9079 70.0907 12.999C70.6931 12.0901 71.5516 11.3806 72.5574 10.9602C73.5632 10.5398 74.6711 10.4276 75.7407 10.6376C76.8103 10.8477 77.7936 11.3707 78.5659 12.1403C79.3382 12.9099 79.8649 13.8915 80.0792 14.9608C80.2934 16.0301 80.1857 17.139 79.7695 18.147C79.3534 19.155 78.6476 20.0167 77.7416 20.6231C76.8356 21.2295 75.77 21.5531 74.68 21.5531C73.9564 21.5614 73.2385 21.4253 72.5681 21.1527C71.8977 20.8801 71.2884 20.4766 70.7757 19.9657C70.263 19.4548 69.8572 18.8468 69.5821 18.1772C69.307 17.5076 69.168 16.7898 69.1734 16.0658ZM77.0697 16.0658C77.0567 15.5958 76.9055 15.1399 76.6349 14.7554C76.3644 14.3708 75.9866 14.0746 75.5487 13.9036C75.1108 13.7327 74.6323 13.6948 74.1729 13.7945C73.7136 13.8942 73.2938 14.1272 72.9661 14.4643C72.6384 14.8014 72.4172 15.2276 72.3303 15.6898C72.2435 16.152 72.2946 16.6295 72.4775 17.0627C72.6604 17.4959 72.9669 17.8655 73.3586 18.1254C73.7504 18.3853 74.21 18.5239 74.68 18.5239C75.0019 18.5325 75.3221 18.4743 75.6204 18.3529C75.9187 18.2315 76.1886 18.0496 76.4131 17.8187C76.6376 17.5877 76.8119 17.3127 76.9249 17.0111C77.0379 16.7094 77.0872 16.3875 77.0697 16.0658Z" fill="#1D2130"/>
<path d="M81.6402 8.08269C81.6402 7.71262 81.7499 7.35086 81.9554 7.04316C82.1608 6.73546 82.4529 6.49563 82.7947 6.35402C83.1364 6.2124 83.5124 6.17534 83.8752 6.24754C84.238 6.31974 84.5712 6.49794 84.8328 6.75962C85.0943 7.0213 85.2724 7.3547 85.3446 7.71765C85.4168 8.08061 85.3797 8.45683 85.2382 8.79873C85.0966 9.14063 84.8569 9.43285 84.5494 9.63845C84.2418 9.84405 83.8802 9.95379 83.5103 9.95379C83.0159 9.94887 82.543 9.75015 82.1934 9.40031C81.8437 9.05048 81.6451 8.57741 81.6402 8.08269ZM81.955 10.8683H85.073V21.2633H81.9508L81.955 10.8683Z" fill="#1D2130"/>
<path d="M98.5317 16.0658C98.5677 16.7528 98.4676 17.4402 98.2372 18.0883C98.0068 18.7365 97.6506 19.3327 97.1891 19.8427C96.7275 20.3526 96.1698 20.7662 95.548 21.0598C94.9261 21.3533 94.2524 21.521 93.5655 21.5531C92.9879 21.5847 92.4105 21.4872 91.8752 21.2678C91.3399 21.0484 90.8601 20.7126 90.4706 20.2847V25.4203H87.3536V10.8683H90.4706V11.8448C90.8603 11.4172 91.3401 11.0817 91.8754 10.8625C92.4107 10.6433 92.988 10.546 93.5655 10.5775C94.2525 10.6095 94.9264 10.7771 95.5484 11.0706C96.1704 11.3642 96.7282 11.7779 97.1898 12.288C97.6513 12.7981 98.0075 13.3945 98.2378 14.0429C98.4681 14.6912 98.568 15.3787 98.5317 16.0658ZM95.4147 16.0658C95.4025 15.5793 95.2472 15.1072 94.9682 14.7086C94.6891 14.31 94.2988 14.0026 93.846 13.8249C93.3932 13.6471 92.898 13.607 92.4225 13.7094C91.947 13.8118 91.5122 14.0523 91.1727 14.4007C90.8331 14.7491 90.6037 15.19 90.5134 15.6681C90.423 16.1463 90.4756 16.6405 90.6646 17.0889C90.8536 17.5374 91.1705 17.92 91.5758 18.1891C91.9811 18.4582 92.4568 18.6016 92.9432 18.6016C93.2771 18.6164 93.6104 18.5605 93.9212 18.4375C94.232 18.3145 94.5133 18.1271 94.7467 17.8877C94.9801 17.6482 95.1602 17.3621 95.2753 17.0482C95.3905 16.7342 95.438 16.3994 95.4147 16.0658Z" fill="#1D2130"/>
<path d="M108.15 18.1438C108.15 20.5347 106.073 21.5532 103.829 21.5532C102.923 21.6353 102.012 21.4435 101.216 21.0025C100.42 20.5615 99.7736 19.8916 99.3618 19.0794L102.062 17.5411C102.171 17.9165 102.406 18.2431 102.727 18.4663C103.048 18.6895 103.435 18.7958 103.825 18.7675C104.572 18.7675 104.947 18.5386 104.947 18.1239C104.947 16.9794 99.8351 17.5831 99.8351 13.9869C99.8351 11.7199 101.747 10.5775 103.908 10.5775C104.72 10.5518 105.525 10.7446 106.237 11.1357C106.95 11.5269 107.544 12.1021 107.959 12.8014L105.3 14.2357C105.183 13.9634 104.989 13.7315 104.742 13.5689C104.494 13.4062 104.204 13.3201 103.908 13.3212C103.368 13.3212 103.035 13.5312 103.035 13.9029C103.039 15.0883 108.15 14.2977 108.15 18.1438Z" fill="#1D2130"/>
<path d="M119.536 10.8684V21.2634H116.419V20.2858C116.059 20.7172 115.603 21.057 115.087 21.2775C114.57 21.498 114.009 21.5928 113.449 21.5542C111.35 21.5542 109.566 20.058 109.566 17.2492V10.8684H112.683V16.7925C112.657 17.04 112.685 17.2903 112.765 17.5259C112.846 17.7615 112.977 17.9767 113.149 18.1566C113.321 18.3365 113.53 18.4767 113.761 18.5675C113.993 18.6583 114.242 18.6976 114.49 18.6825C115.633 18.6825 116.422 18.0178 116.422 16.5415V10.8715L119.536 10.8684Z" fill="#1D2130"/>
<path d="M137.409 14.8805V21.2624H134.292V15.1503C134.292 14.1108 133.793 13.4462 132.796 13.4462C131.757 13.4462 131.175 14.1738 131.175 15.4002V21.2624H128.059V15.1503C128.059 14.1108 127.56 13.4462 126.562 13.4462C125.523 13.4462 124.942 14.1738 124.942 15.4002V21.2624H121.825V10.8674H124.942V11.8229C125.265 11.3989 125.689 11.0628 126.176 10.8451C126.662 10.6274 127.195 10.535 127.726 10.5765C128.26 10.5504 128.791 10.663 129.268 10.9033C129.744 11.1436 130.151 11.5035 130.448 11.9478C130.793 11.483 131.25 11.1134 131.777 10.8736C132.304 10.6338 132.884 10.5316 133.461 10.5765C135.846 10.5776 137.409 12.2817 137.409 14.8805Z" fill="#1D2130"/>
<path d="M140.045 10.8043C141.323 10.8043 142.358 9.76822 142.358 8.49013C142.358 7.21203 141.323 6.17593 140.045 6.17593C138.768 6.17593 137.732 7.21203 137.732 8.49013C137.732 9.76822 138.768 10.8043 140.045 10.8043Z" fill="#1D2130"/>
</g>
</svg>
