<svg width="17" height="17" viewBox="0 0 17 17" fill="none" xmlns="http://www.w3.org/2000/svg">
<path d="M8.33325 1.96309C10.4708 1.96309 10.7239 1.97246 11.5645 2.00996C12.3458 2.04434 12.7676 2.17559 13.0489 2.28496C13.4208 2.42871 13.6895 2.60371 13.9676 2.88184C14.2489 3.16309 14.4208 3.42871 14.5645 3.80059C14.6739 4.08184 14.8051 4.50684 14.8395 5.28496C14.877 6.12871 14.8864 6.38184 14.8864 8.51621C14.8864 10.6537 14.877 10.9068 14.8395 11.7475C14.8051 12.5287 14.6739 12.9506 14.5645 13.2318C14.4208 13.6037 14.2458 13.8725 13.9676 14.1506C13.6864 14.4318 13.4208 14.6037 13.0489 14.7475C12.7676 14.8568 12.3426 14.9881 11.5645 15.0225C10.7208 15.06 10.4676 15.0693 8.33325 15.0693C6.19575 15.0693 5.94263 15.06 5.102 15.0225C4.32075 14.9881 3.89888 14.8568 3.61763 14.7475C3.24575 14.6037 2.977 14.4287 2.69888 14.1506C2.41763 13.8693 2.24575 13.6037 2.102 13.2318C1.99263 12.9506 1.86138 12.5256 1.827 11.7475C1.7895 10.9037 1.78013 10.6506 1.78013 8.51621C1.78013 6.37871 1.7895 6.12559 1.827 5.28496C1.86138 4.50371 1.99263 4.08184 2.102 3.80059C2.24575 3.42871 2.42075 3.15996 2.69888 2.88184C2.98013 2.60059 3.24575 2.42871 3.61763 2.28496C3.89888 2.17559 4.32388 2.04434 5.102 2.00996C5.94263 1.97246 6.19575 1.96309 8.33325 1.96309ZM8.33325 0.522461C6.16138 0.522461 5.8895 0.531836 5.03638 0.569336C4.18638 0.606836 3.602 0.744336 3.09575 0.941211C2.56763 1.14746 2.12075 1.41934 1.677 1.86621C1.23013 2.30996 0.958252 2.75684 0.752002 3.28184C0.555127 3.79121 0.417627 4.37246 0.380127 5.22246C0.342627 6.07871 0.333252 6.35059 0.333252 8.52246C0.333252 10.6943 0.342627 10.9662 0.380127 11.8193C0.417627 12.6693 0.555127 13.2537 0.752002 13.76C0.958252 14.2881 1.23013 14.735 1.677 15.1787C2.12075 15.6225 2.56763 15.8975 3.09263 16.1006C3.602 16.2975 4.18325 16.435 5.03325 16.4725C5.88638 16.51 6.15825 16.5193 8.33013 16.5193C10.502 16.5193 10.7739 16.51 11.627 16.4725C12.477 16.435 13.0614 16.2975 13.5676 16.1006C14.0926 15.8975 14.5395 15.6225 14.9833 15.1787C15.427 14.735 15.702 14.2881 15.9051 13.7631C16.102 13.2537 16.2395 12.6725 16.277 11.8225C16.3145 10.9693 16.3239 10.6975 16.3239 8.52559C16.3239 6.35371 16.3145 6.08184 16.277 5.22871C16.2395 4.37871 16.102 3.79434 15.9051 3.28809C15.7083 2.75684 15.4364 2.30996 14.9895 1.86621C14.5458 1.42246 14.0989 1.14746 13.5739 0.944336C13.0645 0.747461 12.4833 0.609961 11.6333 0.572461C10.777 0.531836 10.5051 0.522461 8.33325 0.522461Z" fill="#232536"/>
<path d="M8.33325 4.41309C6.0645 4.41309 4.22388 6.25371 4.22388 8.52246C4.22388 10.7912 6.0645 12.6318 8.33325 12.6318C10.602 12.6318 12.4426 10.7912 12.4426 8.52246C12.4426 6.25371 10.602 4.41309 8.33325 4.41309ZM8.33325 11.1881C6.86138 11.1881 5.66763 9.99434 5.66763 8.52246C5.66763 7.05059 6.86138 5.85684 8.33325 5.85684C9.80513 5.85684 10.9989 7.05059 10.9989 8.52246C10.9989 9.99434 9.80513 11.1881 8.33325 11.1881Z" fill="#232536"/>
<path d="M13.5645 4.25051C13.5645 4.78176 13.1333 5.20989 12.6051 5.20989C12.0739 5.20989 11.6458 4.77864 11.6458 4.25051C11.6458 3.71926 12.077 3.29114 12.6051 3.29114C13.1333 3.29114 13.5645 3.72239 13.5645 4.25051Z" fill="#232536"/>
</svg>
