<svg width="16" height="17" viewBox="0 0 16 17" fill="none" xmlns="http://www.w3.org/2000/svg">
<g clip-path="url(#clip0_1333_297)">
<path d="M14.8155 0.522461H1.18113C0.528003 0.522461 -0.00012207 1.03809 -0.00012207 1.67559V15.3662C-0.00012207 16.0037 0.528003 16.5225 1.18113 16.5225H14.8155C15.4686 16.5225 15.9999 16.0037 15.9999 15.3693V1.67559C15.9999 1.03809 15.4686 0.522461 14.8155 0.522461ZM4.74675 14.1568H2.37175V6.51934H4.74675V14.1568ZM3.55925 5.47871C2.79675 5.47871 2.18113 4.86309 2.18113 4.10371C2.18113 3.34434 2.79675 2.72871 3.55925 2.72871C4.31863 2.72871 4.93425 3.34434 4.93425 4.10371C4.93425 4.85996 4.31863 5.47871 3.55925 5.47871ZM13.6343 14.1568H11.2624V10.4443C11.2624 9.55996 11.2468 8.41934 10.028 8.41934C8.79363 8.41934 8.60613 9.38496 8.60613 10.3818V14.1568H6.23738V6.51934H8.51238V7.56309H8.54363C8.85925 6.96309 9.63425 6.32871 10.7874 6.32871C13.1905 6.32871 13.6343 7.90996 13.6343 9.96621V14.1568Z" fill="#232536"/>
</g>
<defs>
<clipPath id="clip0_1333_297">
<rect width="16" height="16" fill="white" transform="translate(-0.00012207 0.522461)"/>
</clipPath>
</defs>
</svg>
