<svg width="17" height="17" viewBox="0 0 17 17" fill="none" xmlns="http://www.w3.org/2000/svg">
<g clip-path="url(#clip0_1333_290)">
<path d="M5.69994 15.0226C11.7362 15.0226 15.0387 10.0204 15.0387 5.68382C15.0387 5.5432 15.0356 5.39945 15.0293 5.25882C15.6718 4.79422 16.2262 4.21875 16.6665 3.55945C16.0682 3.82565 15.4329 3.9995 14.7824 4.07507C15.4674 3.66452 15.9802 3.01956 16.2259 2.25976C15.5815 2.64162 14.8769 2.91099 14.1421 3.05632C13.6471 2.53029 12.9925 2.18199 12.2796 2.06528C11.5668 1.94857 10.8353 2.06995 10.1983 2.41065C9.56137 2.75134 9.05437 3.29239 8.75574 3.95012C8.4571 4.60786 8.38346 5.34566 8.54619 6.04945C7.2415 5.98398 5.96513 5.64505 4.79983 5.05465C3.63452 4.46425 2.6063 3.63554 1.78182 2.62226C1.36277 3.34475 1.23454 4.19968 1.42319 5.01331C1.61184 5.82694 2.10321 6.53821 2.79744 7.00257C2.27626 6.98603 1.76649 6.8457 1.31025 6.5932V6.63382C1.30979 7.39202 1.5719 8.12697 2.05204 8.71376C2.53219 9.30055 3.20072 9.70296 3.944 9.85257C3.46121 9.98467 2.95449 10.0039 2.46307 9.90882C2.67281 10.5609 3.08089 11.1312 3.63035 11.5401C4.17982 11.9491 4.84325 12.1763 5.52807 12.1901C4.36545 13.1033 2.92929 13.5987 1.45088 13.5963C1.1887 13.5959 0.92677 13.5799 0.666504 13.5482C2.16841 14.5117 3.91552 15.0235 5.69994 15.0226Z" fill="#232536"/>
</g>
<defs>
<clipPath id="clip0_1333_290">
<rect width="16" height="16" fill="white" transform="translate(0.666504 0.522461)"/>
</clipPath>
</defs>
</svg>
