<svg width="138" height="32" viewBox="0 0 138 32" fill="none" xmlns="http://www.w3.org/2000/svg">
<g opacity="0.6">
<path d="M33.6484 7.63501H36.8138V22.952H33.6484V7.63501Z" fill="#1D2130"/>
<path d="M38.5864 17.705C38.5864 16.603 38.9121 15.5258 39.5222 14.61C40.1322 13.6941 40.9992 12.9809 42.0133 12.5606C43.0273 12.1404 44.1427 12.032 45.2181 12.2494C46.2935 12.4667 47.2804 12.9999 48.0538 13.7813C48.8272 14.5628 49.3523 15.5573 49.5625 16.6389C49.7726 17.7205 49.6584 18.8405 49.2343 19.8568C48.8102 20.8731 48.0952 21.74 47.1801 22.3476C46.265 22.9553 45.191 23.2763 44.0941 23.27C43.3665 23.2757 42.6452 23.1354 41.9723 22.8574C41.2994 22.5793 40.6886 22.1691 40.1756 21.6508C39.6626 21.1325 39.2578 20.5165 38.9849 19.8389C38.712 19.1613 38.5765 18.4359 38.5864 17.705ZM46.5208 17.705C46.5084 17.2299 46.3568 16.769 46.085 16.3801C45.8132 15.9911 45.4333 15.6912 44.9928 15.518C44.5522 15.3448 44.0706 15.3059 43.6082 15.4062C43.1458 15.5066 42.7231 15.7416 42.393 16.082C42.0629 16.4224 41.8399 16.853 41.7521 17.32C41.6643 17.787 41.7155 18.2696 41.8993 18.7076C42.0831 19.1455 42.3913 19.5192 42.7855 19.7821C43.1796 20.0449 43.6421 20.1852 44.1152 20.1854C44.4372 20.1917 44.7572 20.1312 45.0549 20.0077C45.3527 19.8841 45.6219 19.7002 45.8457 19.4674C46.0695 19.2346 46.243 18.958 46.3556 18.6547C46.4681 18.3515 46.5172 18.0282 46.4997 17.705H46.5208Z" fill="#1D2130"/>
<path d="M62.126 12.458V22.4326C62.126 25.9518 59.3827 27.4464 56.6077 27.4464C55.629 27.5271 54.6472 27.3317 53.7729 26.8823C52.8987 26.4328 52.1666 25.7471 51.6593 24.9024L54.3287 23.3548C54.545 23.793 54.8891 24.1545 55.3151 24.3912C55.7411 24.6279 56.2288 24.7286 56.7133 24.6798C57.0218 24.718 57.335 24.6872 57.6304 24.5896C57.9258 24.4921 58.196 24.3302 58.4218 24.1154C58.6477 23.9007 58.8235 23.6385 58.9367 23.3476C59.0499 23.0567 59.0977 22.7442 59.0767 22.4326V21.468C58.7084 21.9167 58.241 22.2729 57.7117 22.5084C57.1824 22.7439 56.6057 22.8523 56.0274 22.8248C54.6283 22.8248 53.2864 22.2664 52.297 21.2725C51.3077 20.2785 50.7519 18.9305 50.7519 17.5248C50.7519 16.1192 51.3077 14.7711 52.297 13.7771C53.2864 12.7832 54.6283 12.2248 56.0274 12.2248C56.6057 12.1973 57.1824 12.3057 57.7117 12.5412C58.241 12.7767 58.7084 13.1329 59.0767 13.5816V12.5216L62.126 12.458ZM59.0767 17.493C59.0978 16.9859 58.9673 16.484 58.7022 16.0519C58.437 15.6199 58.0493 15.2774 57.5888 15.0685C57.1284 14.8596 56.6162 14.7938 56.1183 14.8797C55.6203 14.9655 55.1593 15.1991 54.7945 15.5503C54.4298 15.9015 54.1779 16.3542 54.0713 16.8504C53.9648 17.3466 54.0084 17.8634 54.1965 18.3345C54.3847 18.8055 54.7088 19.2093 55.1272 19.4938C55.5456 19.7783 56.0392 19.9306 56.5444 19.931C56.8741 19.9549 57.2051 19.909 57.516 19.7963C57.827 19.6837 58.1109 19.5068 58.3496 19.277C58.5882 19.0473 58.7762 18.7698 58.9015 18.4625C59.0267 18.1552 59.0864 17.8249 59.0767 17.493Z" fill="#1D2130"/>
<path d="M63.9091 17.705C63.9091 16.6039 64.2342 15.5275 64.8434 14.6121C65.4525 13.6968 66.3183 12.9835 67.3311 12.5626C68.3439 12.1417 69.4582 12.0321 70.533 12.2477C71.6078 12.4633 72.5948 12.9944 73.3691 13.7737C74.1433 14.5531 74.6701 15.5456 74.8826 16.6258C75.0952 17.706 74.984 18.8253 74.5631 19.842C74.1422 20.8587 73.4306 21.7271 72.5183 22.3373C71.6059 22.9475 70.5339 23.2721 69.4379 23.27C68.709 23.2771 67.986 23.1379 67.3113 22.8606C66.6367 22.5834 66.0239 22.1735 65.5089 21.6552C64.994 21.1369 64.5872 20.5205 64.3125 19.8422C64.0378 19.1639 63.9006 18.4373 63.9091 17.705ZM71.8435 17.705C71.8311 17.2295 71.6792 16.7682 71.4069 16.379C71.1347 15.9898 70.7541 15.69 70.313 15.5171C69.8719 15.3442 69.3898 15.3059 68.9271 15.4071C68.4644 15.5083 68.0417 15.7444 67.712 16.0858C67.3823 16.4273 67.1603 16.8589 67.0737 17.3265C66.987 17.7942 67.0397 18.2772 67.2251 18.7149C67.4105 19.1526 67.7204 19.5257 68.1159 19.7872C68.5114 20.0488 68.9749 20.1873 69.4484 20.1854C69.7705 20.1917 70.0904 20.1312 70.3882 20.0077C70.686 19.8841 70.9551 19.7002 71.1789 19.4674C71.4027 19.2346 71.5763 18.958 71.6889 18.6547C71.8014 18.3515 71.8505 18.0282 71.833 17.705H71.8435Z" fill="#1D2130"/>
<path d="M76.4333 9.64896C76.4333 9.27578 76.5435 8.91099 76.7499 8.6007C76.9562 8.29042 77.2496 8.04859 77.5927 7.90578C77.9359 7.76297 78.3135 7.72561 78.6778 7.79841C79.0422 7.87121 79.3768 8.05091 79.6395 8.31479C79.9021 8.57866 80.081 8.91486 80.1535 9.28086C80.2259 9.64686 80.1887 10.0262 80.0466 10.371C79.9044 10.7158 79.6637 11.0104 79.3549 11.2178C79.046 11.4251 78.6829 11.5358 78.3114 11.5358C77.815 11.5302 77.3405 11.3297 76.9895 10.977C76.6385 10.6244 76.4388 10.1477 76.4333 9.64896ZM76.7393 12.458H79.9047V22.952H76.7393V12.458Z" fill="#1D2130"/>
<path d="M93.4523 17.705C93.4878 18.4029 93.3855 19.101 93.1514 19.7591C92.9173 20.4171 92.556 21.0222 92.0882 21.5394C91.6204 22.0566 91.0555 22.4758 90.4258 22.7728C89.7962 23.0698 89.1143 23.2388 88.4194 23.27C87.8297 23.3094 87.2388 23.2146 86.6907 22.9925C86.1426 22.7704 85.6515 22.4268 85.2541 21.9874V27.1708H82.0887V12.458H85.2541V13.4438C85.652 13.0057 86.1435 12.6637 86.6916 12.4435C87.2398 12.2232 87.8305 12.1303 88.4194 12.1718C89.1115 12.2031 89.7907 12.3711 90.4182 12.6661C91.0457 12.9611 91.6092 13.3774 92.0765 13.8912C92.5439 14.4051 92.9059 15.0063 93.142 15.6607C93.378 16.3151 93.4835 17.0097 93.4523 17.705ZM90.2869 17.705C90.2745 17.2127 90.1176 16.7351 89.8361 16.3319C89.5546 15.9287 89.1608 15.618 88.7043 15.4387C88.2477 15.2594 87.7486 15.2195 87.2696 15.324C86.7905 15.4284 86.3528 15.6726 86.0113 16.0259C85.6698 16.3792 85.4397 16.8259 85.3498 17.3101C85.2599 17.7942 85.3143 18.2942 85.5061 18.7474C85.6979 19.2006 86.0186 19.5869 86.428 19.8578C86.8374 20.1287 87.3172 20.2722 87.8074 20.2702C88.1432 20.2845 88.4782 20.2274 88.7904 20.1025C89.1027 19.9777 89.3851 19.7879 89.6192 19.5457C89.8533 19.3035 90.0339 19.0143 90.1489 18.6971C90.264 18.3799 90.311 18.0418 90.2869 17.705Z" fill="#1D2130"/>
<path d="M103.085 19.8038C103.085 22.2206 100.975 23.2488 98.7384 23.2488C97.8261 23.3313 96.9101 23.137 96.1088 22.6911C95.3076 22.2451 94.6578 21.568 94.2436 20.7472L96.9658 19.1996C97.0736 19.5778 97.3075 19.9074 97.6282 20.1331C97.949 20.3589 98.3372 20.4671 98.7278 20.4398C99.477 20.4398 99.8568 20.2066 99.8568 19.7826C99.8568 18.6272 94.7184 19.242 94.7184 15.6062C94.7184 13.3166 96.6387 12.1718 98.8123 12.1718C99.6385 12.1346 100.459 12.3229 101.187 12.7167C101.916 13.1105 102.524 13.6951 102.948 14.4084L100.226 15.85C100.106 15.5765 99.9093 15.3439 99.6603 15.1803C99.4113 15.0166 99.1204 14.9289 98.8228 14.9278C98.2741 14.9278 97.9471 15.1398 97.9471 15.5108C97.9471 16.7192 103.085 15.9242 103.085 19.8038Z" fill="#1D2130"/>
<path d="M114.554 12.458V22.952H111.389V21.9662C111.03 22.4026 110.573 22.7479 110.056 22.9744C109.539 23.2009 108.977 23.3022 108.414 23.27C106.303 23.27 104.499 21.7542 104.499 18.924V12.458H107.665V18.447C107.64 18.6974 107.669 18.9503 107.751 19.1881C107.833 19.4259 107.965 19.643 108.139 19.8244C108.312 20.0058 108.523 20.1472 108.756 20.2388C108.99 20.3304 109.24 20.3701 109.49 20.355C110.629 20.355 111.431 19.6766 111.431 18.235V12.458H114.554Z" fill="#1D2130"/>
<path d="M132.491 16.5072V22.952H129.326V16.7828C129.326 15.7228 128.83 15.0656 127.828 15.0656C126.825 15.0656 126.192 15.797 126.192 17.0372V22.952H123.027V16.7828C123.027 15.7228 122.531 15.0656 121.529 15.0656C120.526 15.0656 119.893 15.797 119.893 17.0372V22.952H116.728V12.458H119.893V13.4226C120.221 12.9964 120.649 12.6589 121.139 12.4406C121.629 12.2222 122.166 12.1298 122.7 12.1718C123.235 12.1437 123.769 12.256 124.248 12.4976C124.727 12.7392 125.135 13.1018 125.433 13.5498C125.78 13.0817 126.241 12.7098 126.77 12.4689C127.3 12.2279 127.881 12.1257 128.461 12.1718C130.93 12.1718 132.491 13.889 132.491 16.5072Z" fill="#1D2130"/>
<path d="M14.7936 4.87902V0.374023H0.655029V31.326H14.7936V26.821C11.8973 26.821 9.11962 25.6651 7.07165 23.6077C5.02367 21.5502 3.87313 18.7597 3.87313 15.85C3.87313 12.9403 5.02367 10.1498 7.07165 8.09235C9.11962 6.03489 11.8973 4.87902 14.7936 4.87902Z" fill="#1D2130"/>
<path d="M14.7936 4.87902V26.821C17.6898 26.821 20.4674 25.6652 22.5154 23.6077C24.5634 21.5502 25.7139 18.7597 25.7139 15.85C25.7139 12.9403 24.5634 10.1498 22.5154 8.09236C20.4674 6.03489 17.6898 4.87902 14.7936 4.87902Z" fill="#1D2130"/>
<path d="M135.15 12.3944C136.432 12.3944 137.472 11.3503 137.472 10.0624C137.472 8.77447 136.432 7.73039 135.15 7.73039C133.868 7.73039 132.829 8.77447 132.829 10.0624C132.829 11.3503 133.868 12.3944 135.15 12.3944Z" fill="#1D2130"/>
</g>
</svg>
