<svg width="47" height="47" viewBox="0 0 47 47" fill="none" xmlns="http://www.w3.org/2000/svg">
<circle cx="23.5" cy="23.5" r="23.5" fill="#FFA155" fill-opacity="0.1"/>
<g clip-path="url(#clip0_1_2004)">
<path d="M14.0215 12.0449H32.9785C34.0932 12.0449 35 12.9518 35 14.0664V32.9336C35 34.0482 34.0932 34.9551 32.9785 34.9551H14.0215C12.9068 34.9551 12 34.0482 12 32.9336V14.0664C12 12.9518 12.9068 12.0449 14.0215 12.0449ZM32.9785 13.3926H14.0215C13.6499 13.3926 13.3477 13.6949 13.3477 14.0664V17.4355H33.6523V14.0664C33.6523 13.6949 33.3501 13.3926 32.9785 13.3926ZM14.0215 33.6074H32.9785C33.3501 33.6074 33.6523 33.3051 33.6523 32.9336V18.7832H13.3477V32.9336C13.3477 33.3051 13.6499 33.6074 14.0215 33.6074Z" fill="#FFA155"/>
<path d="M21.2129 20.8592C21.5549 20.7126 21.9511 20.871 22.0977 21.2131L26.1406 30.6467C26.2873 30.9887 26.1288 31.3849 25.7868 31.5314C25.4446 31.6781 25.0485 31.5195 24.902 31.1775L20.859 21.744C20.7124 21.4019 20.8709 21.0058 21.2129 20.8592Z" fill="#444CFC"/>
<path d="M27.017 23.0791C27.2495 22.7885 27.6736 22.7414 27.9641 22.9738L31.3332 25.6692C31.6701 25.9386 31.6703 26.4519 31.3332 26.7215L27.9641 29.4168C27.6735 29.6493 27.2494 29.6022 27.017 29.3116C26.7845 29.021 26.8316 28.5969 27.1222 28.3645L29.8336 26.1953L27.1222 24.0262C26.8316 23.7937 26.7845 23.3697 27.017 23.0791Z" fill="#444CFC"/>
<path d="M15.6669 25.6691L19.0361 22.9738C19.3267 22.7413 19.7507 22.7884 19.9832 23.079C20.2156 23.3696 20.1686 23.7937 19.8779 24.0261L17.1665 26.1953L19.8779 28.3644C20.1686 28.5969 20.2156 29.0209 19.9832 29.3115C19.7504 29.6024 19.3263 29.649 19.0361 29.4167L15.6669 26.7214C15.3301 26.452 15.3299 25.9387 15.6669 25.6691Z" fill="#444CFC"/>
<path d="M31.5859 16.0879C31.2138 16.0879 30.9121 15.7862 30.9121 15.4141C30.9121 15.0419 31.2138 14.7402 31.5859 14.7402C31.9581 14.7402 32.2598 15.0419 32.2598 15.4141C32.2598 15.7862 31.9581 16.0879 31.5859 16.0879Z" fill="#FFA155"/>
<path d="M28.8906 16.0879C28.5185 16.0879 28.2168 15.7862 28.2168 15.4141C28.2168 15.0419 28.5185 14.7402 28.8906 14.7402C29.2628 14.7402 29.5645 15.0419 29.5645 15.4141C29.5645 15.7862 29.2628 16.0879 28.8906 16.0879Z" fill="#FFA155"/>
<path d="M26.1953 16.0879C25.8232 16.0879 25.5215 15.7862 25.5215 15.4141C25.5215 15.0419 25.8232 14.7402 26.1953 14.7402C26.5675 14.7402 26.8691 15.0419 26.8691 15.4141C26.8691 15.7862 26.5675 16.0879 26.1953 16.0879Z" fill="#FFA155"/>
<path d="M19.457 16.0879H15.4141C15.0419 16.0879 14.7402 15.7862 14.7402 15.4141C14.7402 15.0419 15.0419 14.7402 15.4141 14.7402H19.457C19.8292 14.7402 20.1309 15.0419 20.1309 15.4141C20.1309 15.7862 19.8292 16.0879 19.457 16.0879Z" fill="#FFA155"/>
</g>
<defs>
<clipPath id="clip0_1_2004">
<rect width="23" height="23" fill="white" transform="matrix(-1 0 0 1 35 12)"/>
</clipPath>
</defs>
</svg>
