<svg width="47" height="47" viewBox="0 0 47 47" fill="none" xmlns="http://www.w3.org/2000/svg">
<circle opacity="0.5" cx="23.5" cy="23.5" r="23.5" fill="#FFE6D2"/>
<g clip-path="url(#clip0_1_2103)">
<path d="M34.9714 12.7918C34.9194 11.8384 34.1612 11.0803 33.2079 11.0283C31.2842 10.9232 27.52 11.0254 23.9205 12.8872C22.0856 13.8363 20.145 15.4455 18.5963 17.3021C18.5772 17.325 18.5586 17.348 18.5397 17.3709L15.025 17.6424C14.4465 17.6871 13.9312 17.9904 13.6112 18.4743L11.2134 22.1011C10.9707 22.4681 10.9321 22.9275 11.1101 23.3298C11.2881 23.7322 11.6539 24.0126 12.0887 24.0799L15.0499 24.5386C15.0394 24.5961 15.0289 24.6536 15.0193 24.7112C14.9207 25.3009 15.1161 25.9072 15.542 26.333L19.6666 30.4577C20.0197 30.8108 20.4969 31.0055 20.9858 31.0055C21.0865 31.0055 21.1877 30.9972 21.2885 30.9804C21.3461 30.9707 21.4036 30.9602 21.4611 30.9498L21.9198 33.911C21.9871 34.3457 22.2675 34.7116 22.6698 34.8896C22.8372 34.9636 23.0143 35.0002 23.1907 35.0002C23.4383 35.0002 23.6842 34.9281 23.8985 34.7864L27.5254 32.3885C28.0093 32.0685 28.3125 31.5532 28.3571 30.9747L28.6286 27.46C28.6516 27.4411 28.6746 27.4225 28.6975 27.4035C30.5542 25.8548 32.1634 23.9141 33.1125 22.0792C34.9743 18.4796 35.0764 14.7153 34.9714 12.7918ZM26.7498 31.2154L23.2805 33.5091L22.8335 30.6233C24.2998 30.1921 25.7502 29.5017 27.1321 28.5767L26.9552 30.8663C26.9442 31.0091 26.8693 31.1364 26.7498 31.2154ZM20.661 29.4633L16.5363 25.3387C16.4311 25.2334 16.3824 25.0855 16.4063 24.943C16.5289 24.2098 16.7194 23.5118 16.9553 22.8542L23.1441 29.043C22.3544 29.3259 21.647 29.4946 21.0566 29.5934C20.9139 29.6171 20.7662 29.5686 20.661 29.4633ZM15.1333 19.0445L17.4229 18.8676C16.4979 20.2494 15.8074 21.6999 15.3763 23.1661L12.4905 22.7192L14.7843 19.2499C14.8633 19.1304 14.9906 19.0555 15.1333 19.0445ZM27.7969 26.3235C26.6609 27.271 25.5583 27.9563 24.5419 28.4522L17.5472 21.4575C18.1968 20.1307 18.9896 19.0259 19.6761 18.2029C21.1093 16.4847 22.8919 15.0024 24.5666 14.1362C27.8701 12.4275 31.3506 12.3354 33.1313 12.4324C33.367 12.4452 33.5545 12.6327 33.5673 12.8684C33.6644 14.6491 33.5722 18.1296 31.8634 21.4331C30.9972 23.1078 29.515 24.8903 27.7969 26.3235Z" fill="#FFA155"/>
<path d="M27.4398 22.0739C28.3399 22.0738 29.2404 21.7311 29.9257 21.0458C30.5897 20.3819 30.9553 19.499 30.9553 18.56C30.9553 17.621 30.5897 16.7382 29.9257 16.0742C28.555 14.7034 26.3246 14.7035 24.954 16.0742C24.29 16.7382 23.9243 17.621 23.9243 18.56C23.9243 19.499 24.29 20.3819 24.954 21.0458C25.6394 21.7312 26.5394 22.0739 27.4398 22.0739ZM25.9483 17.0685C26.3595 16.6573 26.8996 16.4517 27.4398 16.4517C27.9799 16.4517 28.5201 16.6573 28.9313 17.0685C29.3297 17.4669 29.549 17.9966 29.549 18.56C29.549 19.1234 29.3297 19.6531 28.9313 20.0515C28.1089 20.8739 26.7707 20.8739 25.9482 20.0515C25.5498 19.6531 25.3304 19.1234 25.3304 18.56C25.3304 17.9966 25.5499 17.4669 25.9483 17.0685Z" fill="#444CFC"/>
<path d="M11.7173 30.7783C11.8972 30.7783 12.0772 30.7097 12.2144 30.5723L14.51 28.2767C14.7846 28.0021 14.7846 27.557 14.51 27.2824C14.2355 27.0078 13.7903 27.0078 13.5157 27.2824L11.2201 29.578C10.9455 29.8526 10.9455 30.2977 11.2201 30.5723C11.3574 30.7096 11.5373 30.7783 11.7173 30.7783Z" fill="#FFA155"/>
<path d="M16.6138 29.3862C16.3392 29.1116 15.894 29.1116 15.6194 29.3862L11.2059 33.7998C10.9314 34.0744 10.9314 34.5195 11.2059 34.7941C11.3432 34.9314 11.5231 35 11.7031 35C11.8831 35 12.063 34.9314 12.2003 34.7941L16.6137 30.3806C16.8884 30.106 16.8884 29.6608 16.6138 29.3862Z" fill="#FFA155"/>
<path d="M17.7232 31.49L15.4276 33.7856C15.153 34.0602 15.153 34.5054 15.4276 34.78C15.5649 34.9173 15.7449 34.9859 15.9248 34.9859C16.1047 34.9859 16.2847 34.9173 16.4219 34.78L18.7175 32.4844C18.9921 32.2098 18.9921 31.7646 18.7175 31.49C18.443 31.2154 17.9978 31.2154 17.7232 31.49Z" fill="#FFA155"/>
</g>
<defs>
<clipPath id="clip0_1_2103">
<rect width="24" height="24" fill="white" transform="translate(11 11)"/>
</clipPath>
</defs>
</svg>
