<svg width="24" height="24" viewBox="0 0 24 24" fill="none" xmlns="http://www.w3.org/2000/svg">
<g clip-path="url(#clip0_1_2006)">
<path d="M3.02148 0.0449219H21.9785C23.0932 0.0449219 24 0.95176 24 2.06641V20.9336C24 22.0482 23.0932 22.9551 21.9785 22.9551H3.02148C1.90684 22.9551 1 22.0482 1 20.9336V2.06641C1 0.95176 1.90684 0.0449219 3.02148 0.0449219ZM21.9785 1.39258H3.02148C2.64993 1.39258 2.34766 1.69486 2.34766 2.06641V5.43555H22.6523V2.06641C22.6523 1.69486 22.3501 1.39258 21.9785 1.39258ZM3.02148 21.6074H21.9785C22.3501 21.6074 22.6523 21.3051 22.6523 20.9336V6.7832H2.34766V20.9336C2.34766 21.3051 2.64993 21.6074 3.02148 21.6074Z" fill="#FFA155"/>
<path d="M10.2129 8.85918C10.5549 8.7126 10.9511 8.87104 11.0977 9.21307L15.1406 18.6467C15.2873 18.9887 15.1288 19.3849 14.7868 19.5314C14.4446 19.6781 14.0485 19.5195 13.902 19.1775L9.859 9.74396C9.71238 9.40188 9.87086 9.00576 10.2129 8.85918Z" fill="#444CFC"/>
<path d="M16.017 11.0791C16.2495 10.7885 16.6736 10.7414 16.9641 10.9738L20.3332 13.6692C20.6701 13.9386 20.6703 14.4519 20.3332 14.7215L16.9641 17.4168C16.6735 17.6493 16.2494 17.6022 16.017 17.3116C15.7845 17.021 15.8316 16.5969 16.1222 16.3645L18.8336 14.1953L16.1222 12.0262C15.8316 11.7937 15.7845 11.3697 16.017 11.0791Z" fill="#444CFC"/>
<path d="M4.66694 13.6691L8.03608 10.9738C8.32668 10.7413 8.75075 10.7884 8.98317 11.079C9.21564 11.3696 9.16856 11.7937 8.87792 12.0261L6.16653 14.1953L8.87792 16.3644C9.16856 16.5969 9.21564 17.0209 8.98317 17.3115C8.75039 17.6024 8.32628 17.649 8.03608 17.4167L4.66694 14.7214C4.33008 14.452 4.32985 13.9387 4.66694 13.6691Z" fill="#444CFC"/>
<path d="M20.5859 4.08789C20.2138 4.08789 19.9121 3.78621 19.9121 3.41406C19.9121 3.04192 20.2138 2.74023 20.5859 2.74023C20.9581 2.74023 21.2598 3.04192 21.2598 3.41406C21.2598 3.78621 20.9581 4.08789 20.5859 4.08789Z" fill="#FFA155"/>
<path d="M17.8906 4.08789C17.5185 4.08789 17.2168 3.78621 17.2168 3.41406C17.2168 3.04192 17.5185 2.74023 17.8906 2.74023C18.2628 2.74023 18.5645 3.04192 18.5645 3.41406C18.5645 3.78621 18.2628 4.08789 17.8906 4.08789Z" fill="#FFA155"/>
<path d="M15.1953 4.08789C14.8232 4.08789 14.5215 3.78621 14.5215 3.41406C14.5215 3.04192 14.8232 2.74023 15.1953 2.74023C15.5675 2.74023 15.8691 3.04192 15.8691 3.41406C15.8691 3.78621 15.5675 4.08789 15.1953 4.08789Z" fill="#FFA155"/>
<path d="M8.45703 4.08789H4.41406C4.04193 4.08789 3.74023 3.7862 3.74023 3.41406C3.74023 3.04193 4.04193 2.74023 4.41406 2.74023H8.45703C8.82916 2.74023 9.13086 3.04193 9.13086 3.41406C9.13086 3.7862 8.82916 4.08789 8.45703 4.08789Z" fill="#FFA155"/>
</g>
<defs>
<clipPath id="clip0_1_2006">
<rect width="23" height="23" fill="white" transform="matrix(-1 0 0 1 24 0)"/>
</clipPath>
</defs>
</svg>
