<svg width="24" height="24" viewBox="0 0 24 24" fill="none" xmlns="http://www.w3.org/2000/svg">
<g clip-path="url(#clip0_1_2105)">
<path d="M23.9714 1.79177C23.9194 0.838429 23.1612 0.0803194 22.2079 0.0282882C20.2842 -0.0768056 16.52 0.0254289 12.9205 1.88716C11.0856 2.83629 9.14498 4.44546 7.59627 6.30208C7.57719 6.32496 7.55863 6.34798 7.53969 6.3709L4.02501 6.6424C3.44648 6.68712 2.93118 6.99035 2.61121 7.47429L0.213367 11.1011C-0.0293047 11.4681 -0.0678828 11.9275 0.110102 12.3298C0.288133 12.7322 0.653945 13.0126 1.08871 13.0799L4.04985 13.5386C4.0394 13.5961 4.0289 13.6536 4.01929 13.7112C3.92071 14.3009 4.11609 14.9072 4.54199 15.333L8.66662 19.4577C9.01973 19.8108 9.49687 20.0055 9.98577 20.0055C10.0865 20.0055 10.1877 19.9972 10.2885 19.9804C10.3461 19.9707 10.4036 19.9602 10.4611 19.9498L10.9198 22.911C10.9871 23.3457 11.2675 23.7116 11.6698 23.8896C11.8372 23.9636 12.0143 24.0002 12.1907 24.0002C12.4383 24.0002 12.6842 23.9281 12.8985 23.7864L16.5254 21.3885C17.0093 21.0685 17.3125 20.5532 17.3571 19.9747L17.6286 16.46C17.6516 16.4411 17.6746 16.4225 17.6975 16.4035C19.5542 14.8548 21.1634 12.9141 22.1125 11.0792C23.9743 7.47958 24.0764 3.71529 23.9714 1.79177ZM15.7498 20.2154L12.2805 22.5091L11.8335 19.6233C13.2998 19.1921 14.7502 18.5017 16.1321 17.5767L15.9552 19.8663C15.9442 20.0091 15.8693 20.1364 15.7498 20.2154ZM9.66098 18.4633L5.5363 14.3387C5.43107 14.2334 5.38241 14.0855 5.40627 13.943C5.5289 13.2098 5.71945 12.5118 5.95532 11.8542L12.1441 18.043C11.3544 18.3259 10.647 18.4946 10.0566 18.5934C9.91391 18.6171 9.76621 18.5686 9.66098 18.4633ZM4.13334 8.04448L6.4229 7.86762C5.49787 9.24944 4.8074 10.6999 4.37629 12.1661L1.49048 11.7192L3.78426 8.24988C3.86329 8.13035 3.99056 8.05549 4.13334 8.04448ZM16.7969 15.3235C15.6609 16.271 14.5583 16.9563 13.5419 17.4522L6.54721 10.4575C7.1968 9.13071 7.9896 8.02591 8.67613 7.20288C10.1093 5.48468 11.8919 4.00244 13.5666 3.13619C16.8701 1.42746 20.3506 1.33544 22.1313 1.43238C22.367 1.44523 22.5545 1.63268 22.5673 1.86841C22.6644 3.6491 22.5722 7.12957 20.8634 10.4331C19.9972 12.1078 18.515 13.8903 16.7969 15.3235Z" fill="#FFA155"/>
<path d="M16.4398 11.0739C17.3399 11.0738 18.2404 10.7311 18.9257 10.0458C19.5897 9.38186 19.9553 8.49901 19.9553 7.56001C19.9553 6.62101 19.5897 5.73817 18.9257 5.07418C17.555 3.70342 15.3246 3.70351 13.954 5.07418C13.29 5.73817 12.9243 6.62101 12.9243 7.56001C12.9243 8.49901 13.29 9.38186 13.954 10.0458C14.6394 10.7312 15.5394 11.0739 16.4398 11.0739ZM14.9483 6.06849C15.3595 5.65726 15.8996 5.45167 16.4398 5.45167C16.9799 5.45167 17.5201 5.65726 17.9313 6.06849C18.3297 6.46689 18.549 6.99657 18.549 7.55996C18.549 8.12335 18.3297 8.65309 17.9313 9.05148C17.1089 9.8739 15.7707 9.87386 14.9482 9.05148C14.5498 8.65309 14.3304 8.1234 14.3304 7.56001C14.3304 6.99662 14.5499 6.46689 14.9483 6.06849Z" fill="#444CFC"/>
<path d="M0.717262 19.7783C0.897215 19.7783 1.07717 19.7097 1.21442 19.5723L3.51003 17.2767C3.78462 17.0021 3.78462 16.557 3.51003 16.2824C3.23548 16.0078 2.79026 16.0078 2.51567 16.2824L0.220105 18.578C-0.0544883 18.8526 -0.0544883 19.2977 0.220105 19.5723C0.357355 19.7096 0.537309 19.7783 0.717262 19.7783Z" fill="#FFA155"/>
<path d="M5.61377 18.3862C5.33923 18.1116 4.89401 18.1116 4.61941 18.3862L0.205945 22.7998C-0.0686484 23.0744 -0.0686484 23.5195 0.205945 23.7941C0.343242 23.9314 0.523148 24 0.703101 24C0.883055 24 1.06301 23.9314 1.20026 23.7941L5.61373 19.3806C5.88837 19.106 5.88837 18.6608 5.61377 18.3862Z" fill="#FFA155"/>
<path d="M6.72323 20.49L4.42762 22.7856C4.15303 23.0602 4.15303 23.5054 4.42762 23.78C4.56492 23.9173 4.74487 23.9859 4.92478 23.9859C5.10469 23.9859 5.28469 23.9173 5.42194 23.78L7.71754 21.4844C7.99214 21.2098 7.99214 20.7646 7.71754 20.49C7.443 20.2154 6.99778 20.2154 6.72323 20.49Z" fill="#FFA155"/>
</g>
<defs>
<clipPath id="clip0_1_2105">
<rect width="24" height="24" fill="white"/>
</clipPath>
</defs>
</svg>
