<svg width="22" height="27" viewBox="0 0 22 27" fill="none" xmlns="http://www.w3.org/2000/svg">
<path fill-rule="evenodd" clip-rule="evenodd" d="M4.96353 7.99563H3.99646C3.97544 7.99563 3.95599 8.01517 3.95599 8.03595V10.7357C3.95599 10.7566 3.97544 10.7759 3.99646 10.7759H4.96353V7.99563ZM16.326 6.78681H17.2929C17.9812 6.78681 18.542 7.34765 18.542 8.03595V10.7356C18.542 11.4238 17.9812 11.9846 17.2929 11.9846H15.6224C15.1247 12.7756 14.422 13.4666 13.6666 14.0111C13.6666 14.9805 14.369 15.7721 15.3589 15.7721C18.2501 15.7721 20.597 16.5344 20.597 20.0431C20.597 20.3769 20.3264 20.6475 19.9925 20.6475C19.6589 20.6475 19.3881 20.3769 19.3881 20.0431C19.3881 17.2287 17.5224 16.9808 15.3589 16.9808C14.8791 16.9808 14.4261 16.8634 14.0269 16.656L10.7987 18.9935C10.5925 19.1495 10.3007 19.1604 10.0804 19.0007L7.00537 16.774C6.67287 16.9074 6.31001 16.9808 5.93045 16.9808C3.76711 16.9808 1.90128 17.2287 1.90128 20.0431C1.90128 20.3769 1.63059 20.6475 1.29691 20.6475C0.963154 20.6475 0.692383 20.3769 0.692383 20.0431C0.692383 16.5344 3.03935 15.7721 5.93045 15.7721C6.81939 15.7721 7.55327 15.0787 7.61806 14.2055C6.75625 13.6396 5.95084 12.8803 5.43197 11.9846H3.99646C3.30824 11.9846 2.7474 11.4238 2.7474 10.7356V8.03595C2.7474 7.34765 3.30816 6.78681 3.99646 6.78681H4.96353V5.92454C4.96353 3.01846 7.31081 0.62207 10.2105 0.62207H11.0789C13.9784 0.62207 16.326 3.01877 16.326 5.92469V6.78681ZM15.1172 10.7764V6.85843C13.4766 7.06943 11.8272 6.60585 10.5414 5.57478C9.34732 6.52953 7.79737 7.03609 6.17235 6.88125V10.7C6.43504 11.5392 7.07259 12.2797 7.80733 12.8567C8.80907 13.6435 9.94714 14.1083 10.5704 14.1083C11.2023 14.1083 12.4824 13.5195 13.5562 12.5583C13.7568 12.379 13.9481 12.1871 14.1246 11.9849H12.2563C12.0727 12.2294 11.7801 12.3877 11.4505 12.3877C10.8941 12.3877 10.4433 11.9366 10.4433 11.3805C10.4433 10.824 10.8941 10.373 11.4505 10.373C11.7801 10.373 12.0727 10.5313 12.2563 10.776C13.0581 10.7759 14.3942 10.7764 15.1172 10.7764ZM17.2929 7.99563H16.326V10.7759H17.2929C17.3139 10.7759 17.3333 10.7566 17.3333 10.7356V8.03595C17.3333 8.01517 17.3139 7.99563 17.2929 7.99563ZM15.1074 5.64184C15.0019 4.08742 14.0325 2.7578 12.6731 2.16324C12.458 3.13156 12.0158 4.00129 11.4116 4.72356C12.4648 5.51493 13.7968 5.84931 15.1074 5.64184ZM11.5059 1.8538C11.3656 1.83881 11.2232 1.83097 11.0789 1.83097H10.2105C8.05512 1.83097 6.31056 3.54376 6.1802 5.66961C8.67981 5.9603 10.9878 4.29097 11.5059 1.8538ZM8.05975 16.0473L10.4346 17.7669L13.0696 15.8589C12.8102 15.5256 12.6216 15.1347 12.5268 14.709C11.7638 15.0994 11.0476 15.3168 10.5704 15.3168C10.0989 15.3168 9.43752 15.142 8.73487 14.8226C8.61172 15.2861 8.37633 15.7049 8.05975 16.0473Z" fill="#FFA155"/>
<path d="M1.62549 22.5214C6.03689 26.004 12.0735 28.3258 19.7355 22.5214" stroke="#444CFC" stroke-width="1.5" stroke-linecap="round"/>
</svg>
