<svg width="1061" height="106" viewBox="0 0 1061 106" fill="none" xmlns="http://www.w3.org/2000/svg">
<g opacity="0.8">
<path d="M727.019 60.6854C726.396 60.719 725.781 60.5431 725.272 60.1862C725.059 60.0294 724.887 59.8234 724.773 59.586C724.658 59.3487 724.603 59.0871 724.612 58.8238V49.183C724.607 49.1422 724.612 49.1008 724.625 49.0619C724.639 49.023 724.661 48.9877 724.69 48.9586C724.719 48.9295 724.755 48.9074 724.794 48.8941C724.833 48.8807 724.875 48.8764 724.916 48.8814H726.674C726.872 48.8814 726.966 48.9854 726.966 49.183V58.075C726.966 58.4702 727.144 58.6678 727.51 58.6678C727.666 58.6742 727.821 58.6567 727.971 58.6158C728.18 58.6158 728.295 58.6782 728.306 58.8654L728.463 60.1654C728.47 60.2033 728.469 60.2424 728.46 60.28C728.452 60.3176 728.435 60.3529 728.411 60.3834C728.387 60.414 728.357 60.4391 728.323 60.4571C728.288 60.4751 728.25 60.4856 728.211 60.4878C727.826 60.6143 727.424 60.6809 727.019 60.6854Z" fill="white" fill-opacity="0.45"/>
<path d="M736.906 59.5728C736.022 60.2982 734.913 60.695 733.767 60.695C732.621 60.695 731.511 60.2982 730.628 59.5728C729.852 58.7938 729.417 57.7417 729.417 56.6452C729.417 55.5487 729.852 54.4966 730.628 53.7176C731.513 52.996 732.622 52.6016 733.767 52.6016C734.912 52.6016 736.021 52.996 736.906 53.7176C737.664 54.5037 738.087 55.5508 738.087 56.64C738.087 57.7292 737.664 58.7762 736.906 59.5624V59.5728ZM732.281 58.2C732.691 58.569 733.224 58.7734 733.777 58.7734C734.33 58.7734 734.864 58.569 735.274 58.2C735.645 57.776 735.849 57.2331 735.849 56.6712C735.849 56.1093 735.645 55.5664 735.274 55.1424C734.864 54.7733 734.33 54.5689 733.777 54.5689C733.224 54.5689 732.691 54.7733 732.281 55.1424C731.91 55.5664 731.706 56.1093 731.706 56.6712C731.706 57.2331 731.91 57.776 732.281 58.2Z" fill="white" fill-opacity="0.45"/>
<path d="M747.765 52.8648C747.964 52.8648 748.058 52.9688 748.058 53.1664V60.6232C748.077 61.1265 747.982 61.6275 747.781 62.0899C747.58 62.5522 747.278 62.9642 746.897 63.296C746.051 64.0131 744.963 64.3847 743.852 64.336C742.849 64.3711 741.859 64.0988 741.017 63.556C740.657 63.3212 740.35 63.0154 740.114 62.6576C739.879 62.2998 739.719 61.8976 739.646 61.476C739.646 61.268 739.646 61.1744 739.929 61.1744H741.687C741.761 61.177 741.834 61.2009 741.895 61.2433C741.956 61.2858 742.004 61.3449 742.032 61.4136C742.146 61.7295 742.373 61.9924 742.67 62.152C743.032 62.3376 743.435 62.4306 743.842 62.4224C744.088 62.4358 744.333 62.4004 744.565 62.3182C744.797 62.2361 745.01 62.1089 745.192 61.944C745.358 61.7716 745.487 61.5675 745.571 61.344C745.656 61.1206 745.694 60.8825 745.683 60.644V59.9888C745.054 60.449 744.288 60.6869 743.507 60.6648C742.961 60.6846 742.416 60.5944 741.905 60.3996C741.394 60.2048 740.929 59.9094 740.536 59.5312C739.781 58.7555 739.36 57.7189 739.36 56.64C739.36 55.5612 739.781 54.5245 740.536 53.7488C740.931 53.374 741.397 53.0815 741.907 52.8886C742.418 52.6957 742.961 52.6063 743.507 52.6256C744.311 52.6045 745.097 52.8578 745.736 53.3432V53.1768C745.731 53.137 745.735 53.0966 745.748 53.0585C745.761 53.0205 745.782 52.9857 745.81 52.9569C745.838 52.928 745.872 52.9057 745.91 52.8916C745.948 52.8774 745.988 52.8719 746.029 52.8752L747.765 52.8648ZM743.706 58.8136C743.975 58.8219 744.244 58.7713 744.491 58.6652C744.739 58.5592 744.96 58.4004 745.139 58.2C745.487 57.7535 745.676 57.2048 745.676 56.64C745.676 56.0753 745.487 55.5266 745.139 55.08C744.961 54.8824 744.741 54.7259 744.495 54.6217C744.249 54.5175 743.983 54.4681 743.716 54.4768C743.444 54.4683 743.172 54.5188 742.921 54.6247C742.67 54.7307 742.445 54.8896 742.262 55.0904C741.877 55.5176 741.674 56.0772 741.697 56.6504C741.678 57.2181 741.876 57.7718 742.252 58.2C742.435 58.4004 742.66 58.5589 742.911 58.6648C743.162 58.7707 743.433 58.8215 743.706 58.8136Z" fill="white" fill-opacity="0.45"/>
<path d="M757.087 59.5727C756.202 60.2943 755.093 60.6887 753.948 60.6887C752.804 60.6887 751.695 60.2943 750.81 59.5727C750.051 58.7848 749.627 57.736 749.627 56.6451C749.627 55.5542 750.051 54.5054 750.81 53.7175C751.695 52.9977 752.804 52.6045 753.948 52.6045C755.093 52.6045 756.201 52.9977 757.087 53.7175C757.846 54.5036 758.269 55.5507 758.269 56.6399C758.269 57.7291 757.846 58.7761 757.087 59.5623V59.5727ZM752.452 58.1999C752.653 58.3895 752.889 58.5378 753.148 58.636C753.407 58.7341 753.682 58.7803 753.959 58.7719C754.234 58.779 754.508 58.7321 754.764 58.6339C755.021 58.5358 755.256 58.3883 755.455 58.1999C755.82 57.7731 756.02 57.2312 756.02 56.6711C756.02 56.111 755.82 55.5691 755.455 55.1423C755.256 54.9539 755.021 54.8064 754.764 54.7082C754.508 54.6101 754.234 54.5632 753.959 54.5703C753.682 54.5618 753.407 54.608 753.148 54.7062C752.889 54.8044 752.653 54.9526 752.452 55.1423C752.087 55.5691 751.887 56.111 751.887 56.6711C751.887 57.2312 752.087 57.7731 752.452 58.1999Z" fill="white" fill-opacity="0.45"/>
<path d="M762.047 51.0968C761.77 51.3374 761.415 51.4701 761.048 51.4701C760.68 51.4701 760.325 51.3374 760.048 51.0968C759.923 50.9792 759.823 50.8373 759.755 50.6799C759.687 50.5226 759.651 50.353 759.651 50.1816C759.651 50.0102 759.687 49.8406 759.755 49.6833C759.823 49.5259 759.923 49.384 760.048 49.2664C760.328 49.0318 760.682 48.9031 761.048 48.9031C761.413 48.9031 761.767 49.0318 762.047 49.2664C762.172 49.384 762.272 49.5259 762.34 49.6833C762.409 49.8406 762.444 50.0102 762.444 50.1816C762.444 50.353 762.409 50.5226 762.34 50.6799C762.272 50.8373 762.172 50.9792 762.047 51.0968ZM762.266 60.6856C761.645 60.7159 761.03 60.5403 760.519 60.1864C760.31 60.0272 760.141 59.8205 760.028 59.5835C759.916 59.3465 759.861 59.0861 759.871 58.824V53.1664C759.865 53.1256 759.87 53.0841 759.883 53.0453C759.897 53.0064 759.919 52.971 759.948 52.9419C759.977 52.9129 760.013 52.8908 760.052 52.8774C760.091 52.8641 760.133 52.8597 760.174 52.8648H761.932C762.13 52.8648 762.225 52.9688 762.225 53.1664V58.0752C762.225 58.4704 762.402 58.668 762.758 58.668C762.917 58.6737 763.075 58.6561 763.229 58.616C763.438 58.616 763.553 58.6784 763.564 58.8656L763.721 60.1656C763.728 60.2035 763.728 60.2426 763.719 60.2802C763.71 60.3178 763.693 60.353 763.669 60.3836C763.645 60.4141 763.615 60.4393 763.581 60.4573C763.546 60.4753 763.508 60.4858 763.47 60.488C763.081 60.6151 762.675 60.6818 762.266 60.6856Z" fill="white" fill-opacity="0.45"/>
<path d="M770.186 52.6152C770.735 52.5936 771.283 52.6819 771.797 52.8749C772.311 53.0678 772.781 53.3614 773.178 53.7384C773.918 54.5276 774.33 55.5664 774.33 56.6452C774.33 57.724 773.918 58.7627 773.178 59.552C772.783 59.9322 772.314 60.2287 771.799 60.4236C771.285 60.6184 770.736 60.7076 770.186 60.6856C769.403 60.7029 768.635 60.4655 768 60.0096V63.764C768 63.9616 767.895 64.0552 767.696 64.0552H765.938C765.898 64.0626 765.857 64.0602 765.818 64.0482C765.779 64.0362 765.744 64.015 765.715 63.9863C765.686 63.9576 765.665 63.9224 765.653 63.8836C765.64 63.8449 765.638 63.8038 765.646 63.764V55.236C765.658 55.1525 765.65 55.0674 765.624 54.9874C765.597 54.9074 765.552 54.8346 765.492 54.775C765.432 54.7154 765.359 54.6706 765.278 54.6441C765.198 54.6175 765.112 54.6101 765.028 54.6224H764.683C764.453 54.6224 764.338 54.5392 764.338 54.3728V53.1456C764.332 53.0696 764.353 52.9941 764.397 52.9317C764.441 52.8692 764.505 52.8236 764.578 52.8024C764.94 52.6716 765.323 52.6081 765.708 52.6152C766.092 52.5814 766.478 52.6623 766.815 52.8476C767.152 53.0329 767.426 53.3141 767.602 53.6552C767.939 53.3163 768.342 53.0493 768.786 52.8705C769.231 52.6917 769.707 52.6048 770.186 52.6152ZM768.554 58.2C768.741 58.3938 768.965 58.548 769.213 58.6534C769.461 58.7587 769.728 58.813 769.998 58.813C770.268 58.813 770.535 58.7587 770.783 58.6534C771.031 58.548 771.255 58.3938 771.442 58.2C771.835 57.7643 772.041 57.1934 772.017 56.6088C772.045 56.0236 771.838 55.4515 771.442 55.0176C771.255 54.8238 771.031 54.6695 770.783 54.5642C770.535 54.4588 770.268 54.4045 769.998 54.4045C769.728 54.4045 769.461 54.4588 769.213 54.5642C768.965 54.6695 768.741 54.8238 768.554 55.0176C768.173 55.4591 767.975 56.0277 768 56.6088C767.978 57.1893 768.176 57.7568 768.554 58.2Z" fill="white" fill-opacity="0.45"/>
<path d="M779.268 60.6855C778.328 60.7239 777.397 60.5005 776.579 60.0407C776.251 59.8441 775.971 59.5766 775.761 59.2579C775.551 58.9392 775.416 58.5776 775.365 58.1999C775.365 57.9919 775.438 57.8879 775.669 57.8879H777.207C777.28 57.8907 777.351 57.9136 777.412 57.954C777.473 57.9943 777.521 58.0507 777.552 58.1167C777.772 58.6783 778.347 58.9591 779.268 58.9591C779.589 58.9737 779.909 58.9094 780.199 58.7719C780.299 58.7269 780.385 58.6558 780.448 58.566C780.51 58.4763 780.547 58.3713 780.555 58.2623C780.555 57.9919 780.387 57.8047 780.052 57.6799C779.655 57.5485 779.245 57.4613 778.828 57.4199C778.335 57.3644 777.846 57.2775 777.364 57.1599C776.895 57.0544 776.468 56.8117 776.139 56.4631C775.946 56.2262 775.803 55.9521 775.721 55.6581C775.638 55.3641 775.617 55.0563 775.659 54.7539C775.702 54.4515 775.806 54.161 775.966 53.9004C776.126 53.6398 776.338 53.4147 776.589 53.2391C777.343 52.7616 778.228 52.529 779.121 52.5735C779.986 52.5444 780.841 52.757 781.59 53.1871C781.892 53.3571 782.152 53.5918 782.351 53.8743C782.55 54.1568 782.684 54.4798 782.741 54.8199C782.741 55.0279 782.647 55.1319 782.459 55.1319H780.91C780.845 55.1357 780.78 55.1199 780.724 55.0865C780.668 55.0531 780.624 55.0037 780.596 54.9447C780.493 54.6984 780.298 54.501 780.052 54.3935C779.775 54.2493 779.465 54.1777 779.153 54.1855C778.846 54.1689 778.54 54.2297 778.263 54.3623C778.166 54.3997 778.082 54.4652 778.022 54.5505C777.962 54.6358 777.93 54.7368 777.929 54.8407C777.935 54.9829 777.988 55.1193 778.078 55.2297C778.168 55.3401 778.292 55.4189 778.431 55.4543C778.832 55.6048 779.25 55.7095 779.676 55.7663C780.165 55.8303 780.651 55.9206 781.13 56.0367C781.599 56.1422 782.025 56.3849 782.354 56.7335C782.53 56.9255 782.666 57.1503 782.754 57.3949C782.842 57.6394 782.88 57.8989 782.867 58.1583C782.876 58.5178 782.791 58.8735 782.62 59.1907C782.45 59.5078 782.199 59.7756 781.894 59.9679C781.112 60.4667 780.196 60.717 779.268 60.6855Z" fill="white" fill-opacity="0.45"/>
<path d="M793.926 60.1655C793.931 60.2025 793.93 60.2402 793.921 60.2765C793.912 60.3129 793.896 60.347 793.873 60.3771C793.851 60.4071 793.823 60.4324 793.79 60.4514C793.758 60.4705 793.722 60.4829 793.685 60.488C793.303 60.6119 792.904 60.6785 792.503 60.6855C792.105 60.7265 791.704 60.6647 791.337 60.5062C790.97 60.3477 790.651 60.0978 790.41 59.7808C789.671 60.4123 788.716 60.7364 787.742 60.6855C787.29 60.7062 786.839 60.6327 786.417 60.4697C785.996 60.3068 785.613 60.0579 785.294 59.7391C784.977 59.4052 784.731 59.011 784.571 58.5803C784.411 58.1497 784.34 57.6913 784.363 57.2327V53.1663C784.363 52.9687 784.457 52.8647 784.656 52.8647H786.414C786.612 52.8647 786.707 52.9687 786.707 53.1663V56.9207C786.687 57.3885 786.848 57.8459 787.156 58.1999C787.31 58.3621 787.497 58.4897 787.705 58.574C787.912 58.6583 788.136 58.6974 788.36 58.6888C788.589 58.6987 788.818 58.6634 789.033 58.5849C789.249 58.5063 789.447 58.3861 789.615 58.2311C789.774 58.0678 789.899 57.8737 789.98 57.6609C790.06 57.448 790.097 57.2209 790.086 56.9935V53.1663C790.086 52.9687 790.18 52.8647 790.379 52.8647H792.157C792.356 52.8647 792.45 52.9687 792.45 53.1663V58.0647C792.45 58.4703 792.628 58.668 792.973 58.668C793.136 58.6742 793.298 58.6567 793.455 58.616C793.494 58.6049 793.536 58.6029 793.576 58.6102C793.617 58.6174 793.655 58.6336 793.688 58.6576C793.721 58.6816 793.749 58.7128 793.768 58.7488C793.787 58.7848 793.798 58.8247 793.8 58.8655L793.926 60.1655Z" fill="white" fill-opacity="0.45"/>
<path d="M810.55 60.1657C810.56 60.2029 810.56 60.2417 810.553 60.2794C810.545 60.317 810.529 60.3525 810.506 60.3833C810.483 60.4141 810.454 60.4395 810.42 60.4576C810.386 60.4757 810.348 60.4861 810.31 60.4881C809.921 60.6138 809.515 60.6804 809.106 60.6857C808.484 60.7176 807.869 60.5419 807.359 60.1865C807.139 60.0342 806.959 59.8302 806.837 59.5926C806.715 59.3549 806.653 59.0909 806.658 58.8241V56.3801C806.68 55.9137 806.523 55.4564 806.219 55.1009C806.072 54.9383 805.891 54.8102 805.688 54.7256C805.485 54.6411 805.267 54.6023 805.047 54.6121C804.849 54.6046 804.652 54.642 804.471 54.7212C804.29 54.8005 804.129 54.9196 804.001 55.0697C803.725 55.4182 803.583 55.8537 803.603 56.2969V60.1345C803.603 60.3321 803.509 60.4361 803.31 60.4361H801.542C801.501 60.4411 801.459 60.4368 801.42 60.4234C801.381 60.4101 801.346 60.388 801.316 60.3589C801.287 60.3298 801.265 60.2945 801.251 60.2556C801.238 60.2167 801.234 60.1753 801.239 60.1345V56.3801C801.262 55.9188 801.117 55.4648 800.831 55.1009C800.703 54.948 800.543 54.825 800.362 54.7405C800.182 54.656 799.984 54.6121 799.784 54.6121C799.571 54.6035 799.358 54.6398 799.16 54.7187C798.961 54.7975 798.782 54.9171 798.634 55.0697C798.334 55.407 798.18 55.8477 798.205 56.2969V60.1345C798.21 60.1753 798.205 60.2167 798.192 60.2556C798.178 60.2945 798.156 60.3298 798.127 60.3589C798.098 60.388 798.062 60.4101 798.023 60.4234C797.984 60.4368 797.942 60.4411 797.901 60.4361H796.196C795.997 60.4361 795.903 60.3321 795.903 60.1345V55.2361C795.915 55.1526 795.908 55.0675 795.881 54.9875C795.854 54.9075 795.809 54.8347 795.749 54.7751C795.689 54.7155 795.616 54.6707 795.536 54.6442C795.455 54.6176 795.37 54.6102 795.286 54.6225H794.94C794.71 54.6225 794.595 54.5393 794.595 54.3729V53.1457C794.59 53.0697 794.611 52.9942 794.654 52.9318C794.698 52.8693 794.762 52.8237 794.836 52.8025C795.198 52.6717 795.581 52.6082 795.966 52.6153C796.335 52.584 796.706 52.6572 797.036 52.8265C797.365 52.9958 797.64 53.2543 797.828 53.5721C798.181 53.2395 798.599 52.9829 799.056 52.8183C799.514 52.6536 800 52.5845 800.485 52.6153C800.957 52.5924 801.427 52.6803 801.858 52.8718C802.289 53.0634 802.668 53.3531 802.965 53.7177C803.311 53.3436 803.737 53.0506 804.211 52.86C804.685 52.6693 805.196 52.5858 805.706 52.6153C806.163 52.594 806.619 52.6672 807.046 52.8301C807.473 52.993 807.861 53.2421 808.186 53.5617C808.504 53.895 808.75 54.289 808.91 54.7198C809.07 55.1507 809.141 55.6094 809.117 56.0681V58.0753C809.117 58.4705 809.295 58.6681 809.63 58.6681C809.792 58.6756 809.954 58.658 810.111 58.6161C810.327 58.6161 810.442 58.6993 810.456 58.8657L810.55 60.1657Z" fill="white" fill-opacity="0.45"/>
<path d="M687.868 51.5128C688.64 48.4288 690.428 45.6902 692.947 43.7331C695.466 41.7759 698.571 40.7126 701.768 40.7126C704.965 40.7126 708.07 41.7759 710.589 43.7331C713.107 45.6902 714.895 48.4288 715.667 51.5128H714.411C712.294 51.4818 710.219 52.1109 708.479 53.312C708.379 53.3842 708.274 53.4502 708.165 53.5096H708.019C707.91 53.4502 707.805 53.3842 707.705 53.312C705.95 52.1387 703.883 51.5121 701.768 51.5121C699.653 51.5121 697.585 52.1387 695.83 53.312C695.73 53.3842 695.625 53.4502 695.516 53.5096H695.37C695.261 53.4502 695.156 53.3842 695.056 53.312C693.316 52.1109 691.242 51.4818 689.124 51.5128H687.868ZM712.152 58.0336C712.796 57.5346 713.595 57.2736 714.411 57.2952H716.096V53.9568H714.411C712.973 53.9395 711.568 54.3845 710.404 55.2256C709.75 55.7053 708.958 55.9641 708.144 55.9641C707.331 55.9641 706.539 55.7053 705.885 55.2256C704.692 54.4002 703.273 53.9577 701.82 53.9577C700.367 53.9577 698.948 54.4002 697.755 55.2256C697.101 55.7053 696.309 55.9641 695.495 55.9641C694.682 55.9641 693.89 55.7053 693.236 55.2256C692.058 54.3737 690.632 53.9281 689.176 53.9568H687.439V57.2952H689.124C689.94 57.2736 690.739 57.5346 691.384 58.0336C692.574 58.8595 693.991 59.3023 695.443 59.3023C696.895 59.3023 698.312 58.8595 699.503 58.0336C700.148 57.5362 700.946 57.2754 701.762 57.2952C702.579 57.2719 703.379 57.5331 704.022 58.0336C705.215 58.8589 706.634 59.3014 708.087 59.3014C709.54 59.3014 710.959 58.8589 712.152 58.0336ZM712.152 64.0032C712.796 63.5042 713.595 63.2432 714.411 63.2648H716.096V59.9264H714.411C712.973 59.9091 711.568 60.3541 710.404 61.1952C709.75 61.6749 708.958 61.9337 708.144 61.9337C707.331 61.9337 706.539 61.6749 705.885 61.1952C704.692 60.3698 703.273 59.9273 701.82 59.9273C700.367 59.9273 698.948 60.3698 697.755 61.1952C697.101 61.6749 696.309 61.9337 695.495 61.9337C694.682 61.9337 693.89 61.6749 693.236 61.1952C692.058 60.3433 690.632 59.8977 689.176 59.9264H687.439V63.2648H689.124C689.94 63.2432 690.739 63.5042 691.384 64.0032C692.574 64.8291 693.991 65.2719 695.443 65.2719C696.895 65.2719 698.312 64.8291 699.503 64.0032C700.148 63.5058 700.946 63.245 701.762 63.2648C702.579 63.2415 703.379 63.5027 704.022 64.0032C705.215 64.8285 706.634 65.271 708.087 65.271C709.54 65.271 710.959 64.8285 712.152 64.0032Z" fill="white" fill-opacity="0.45"/>
<path fill-rule="evenodd" clip-rule="evenodd" d="M257.392 37.5239V42.0289C254.505 42.0289 251.736 43.1848 249.694 45.2423C247.653 47.2997 246.506 50.0902 246.506 52.9999C246.506 55.9096 247.653 58.7001 249.694 60.7576C251.736 62.815 254.505 63.9709 257.392 63.9709V68.4759H243.297V37.5239H257.392ZM257.392 63.9709L257.392 42.0289C260.28 42.0289 263.049 43.1848 265.09 45.2423C267.132 47.2997 268.279 50.0902 268.279 52.9999C268.279 55.9096 267.132 58.7001 265.09 60.7576C263.049 62.8151 260.28 63.9709 257.392 63.9709ZM279.345 44.7849H276.189V60.1019H279.345V44.7849ZM282.045 51.7599C281.436 52.6757 281.112 53.7529 281.112 54.8549C281.102 55.5858 281.237 56.3112 281.509 56.9888C281.781 57.6664 282.185 58.2824 282.696 58.8007C283.208 59.319 283.816 59.7292 284.487 60.0073C285.158 60.2853 285.877 60.4256 286.602 60.4199C287.696 60.4262 288.767 60.1052 289.679 59.4975C290.591 58.8899 291.304 58.023 291.727 57.0067C292.15 55.9904 292.264 54.8704 292.054 53.7888C291.845 52.7072 291.321 51.7127 290.55 50.9312C289.779 50.1498 288.795 49.6166 287.723 49.3993C286.651 49.1819 285.539 49.2903 284.528 49.7105C283.517 50.1308 282.653 50.844 282.045 51.7599ZM288.587 53.53C288.858 53.9189 289.009 54.3798 289.022 54.8549H289.001C289.018 55.1781 288.969 55.5014 288.857 55.8046C288.745 56.1079 288.572 56.3845 288.349 56.6173C288.126 56.8501 287.857 57.034 287.56 57.1576C287.264 57.2811 286.945 57.3416 286.624 57.3353C286.152 57.3351 285.691 57.1948 285.298 56.932C284.905 56.6691 284.598 56.2954 284.415 55.8575C284.231 55.4195 284.18 54.9369 284.268 54.4699C284.355 54.0029 284.578 53.5723 284.907 53.2319C285.236 52.8915 285.657 52.6565 286.118 52.5561C286.579 52.4558 287.059 52.4947 287.498 52.6679C287.938 52.8411 288.316 53.141 288.587 53.53ZM304.579 49.6079V59.5825C304.579 63.1017 301.844 64.5963 299.078 64.5963C298.102 64.677 297.123 64.4816 296.252 64.0321C295.38 63.5827 294.65 62.897 294.144 62.0523L296.806 60.5047C297.021 60.9428 297.364 61.3043 297.789 61.541C298.214 61.7778 298.7 61.8784 299.183 61.8297C299.49 61.8679 299.803 61.8371 300.097 61.7395C300.392 61.6419 300.661 61.48 300.886 61.2653C301.111 61.0506 301.287 60.7884 301.399 60.4975C301.512 60.2066 301.56 59.8941 301.539 59.5825V58.6179C301.172 59.0665 300.706 59.4228 300.178 59.6583C299.65 59.8938 299.076 60.0021 298.499 59.9747C297.104 59.9747 295.767 59.4163 294.78 58.4223C293.794 57.4284 293.24 56.0803 293.24 54.6747C293.24 53.269 293.794 51.9209 294.78 50.927C295.767 49.9331 297.104 49.3747 298.499 49.3747C299.076 49.3472 299.65 49.4555 300.178 49.691C300.706 49.9266 301.172 50.2828 301.539 50.7315V49.6715L304.579 49.6079ZM301.539 54.6429C301.56 54.1357 301.43 53.6339 301.166 53.2018C300.901 52.7697 300.515 52.4272 300.056 52.2183C299.597 52.0094 299.086 51.9437 298.59 52.0295C298.093 52.1154 297.634 52.3489 297.27 52.7001C296.906 53.0513 296.655 53.5041 296.549 54.0003C296.443 54.4964 296.486 55.0133 296.674 55.4843C296.861 55.9554 297.185 56.3591 297.602 56.6436C298.019 56.9282 298.511 57.0804 299.015 57.0809C299.343 57.1047 299.673 57.0588 299.983 56.9462C300.293 56.8336 300.576 56.6566 300.814 56.4269C301.052 56.1971 301.239 55.9196 301.364 55.6123C301.489 55.305 301.549 54.9748 301.539 54.6429ZM307.288 51.762C306.681 52.6774 306.356 53.7537 306.356 54.8549C306.348 55.5871 306.485 56.3137 306.759 56.992C307.032 57.6704 307.438 58.2868 307.951 58.8051C308.465 59.3234 309.076 59.7332 309.748 60.0105C310.421 60.2878 311.142 60.427 311.868 60.4199C312.961 60.4219 314.03 60.0973 314.939 59.4871C315.849 58.8769 316.558 58.0085 316.978 56.9918C317.397 55.9752 317.508 54.8559 317.296 53.7757C317.084 52.6955 316.559 51.7029 315.787 50.9236C315.015 50.1442 314.031 49.6132 312.96 49.3976C311.888 49.182 310.778 49.2916 309.768 49.7125C308.758 50.1333 307.895 50.8466 307.288 51.762ZM313.831 53.5288C314.103 53.918 314.254 54.3793 314.266 54.8549H314.256C314.273 55.178 314.224 55.5013 314.112 55.8046C314 56.1078 313.827 56.3845 313.604 56.6173C313.381 56.8501 313.112 57.034 312.816 57.1575C312.519 57.2811 312.2 57.3416 311.879 57.3353C311.407 57.3372 310.945 57.1987 310.55 56.9371C310.156 56.6755 309.847 56.3025 309.662 55.8648C309.477 55.427 309.425 54.9441 309.511 54.4764C309.598 54.0087 309.819 53.5771 310.148 53.2357C310.476 52.8942 310.898 52.6581 311.359 52.557C311.82 52.4558 312.301 52.494 312.741 52.6669C313.18 52.8398 313.56 53.1396 313.831 53.5288ZM318.842 46.7989C318.842 46.4257 318.952 46.0609 319.158 45.7506C319.363 45.4403 319.656 45.1985 319.998 45.0557C320.34 44.9129 320.716 44.8755 321.08 44.9483C321.443 45.0211 321.776 45.2008 322.038 45.4647C322.3 45.7286 322.479 46.0647 322.551 46.4308C322.623 46.7968 322.586 47.1761 322.444 47.5209C322.302 47.8657 322.063 48.1603 321.755 48.3677C321.447 48.575 321.085 48.6857 320.714 48.6857C320.22 48.6801 319.746 48.4796 319.397 48.1269C319.047 47.7743 318.848 47.2976 318.842 46.7989ZM319.147 49.6079H322.303V60.1019H319.147V49.6079ZM335.509 56.9089C335.742 56.2509 335.844 55.5528 335.809 54.8549C335.84 54.1596 335.735 53.4649 335.499 52.8106C335.264 52.1562 334.903 51.5549 334.437 51.0411C333.971 50.5273 333.409 50.111 332.784 49.816C332.158 49.521 331.481 49.353 330.791 49.3217C330.204 49.2802 329.615 49.3731 329.069 49.5933C328.522 49.8136 328.032 50.1556 327.636 50.5937V49.6079H324.48V64.3207H327.636V59.1373C328.032 59.5767 328.521 59.9203 329.068 60.1424C329.614 60.3644 330.203 60.4593 330.791 60.4199C331.484 60.3887 332.164 60.2197 332.791 59.9227C333.419 59.6257 333.982 59.2065 334.449 58.6893C334.915 58.172 335.275 57.567 335.509 56.9089ZM332.204 53.4818C332.484 53.8849 332.641 54.3626 332.653 54.8549C332.677 55.1917 332.63 55.5297 332.515 55.847C332.401 56.1642 332.221 56.4534 331.987 56.6956C331.754 56.9378 331.472 57.1275 331.161 57.2524C330.85 57.3773 330.516 57.4344 330.181 57.4201C329.692 57.422 329.214 57.2786 328.806 57.0077C328.398 56.7368 328.078 56.3505 327.887 55.8973C327.696 55.4441 327.642 54.9441 327.731 54.4599C327.821 53.9758 328.05 53.5291 328.391 53.1758C328.731 52.8225 329.167 52.5783 329.645 52.4738C330.123 52.3694 330.62 52.4093 331.075 52.5886C331.53 52.7679 331.923 53.0786 332.204 53.4818ZM345.412 56.9537C345.412 59.3705 343.308 60.3987 341.078 60.3987C340.169 60.4812 339.256 60.2869 338.457 59.841C337.658 59.395 337.01 58.7179 336.597 57.8971L339.311 56.3495C339.419 56.7277 339.652 57.0573 339.972 57.283C340.291 57.5088 340.678 57.617 341.068 57.5897C341.815 57.5897 342.193 57.3565 342.193 56.9325C342.193 56.516 341.528 56.3295 340.676 56.091C339.166 55.6679 337.071 55.0812 337.071 52.7561C337.071 50.4665 338.985 49.3217 341.152 49.3217C341.976 49.2845 342.794 49.4728 343.52 49.8666C344.246 50.2604 344.853 50.845 345.275 51.5583L342.562 52.9999C342.442 52.7264 342.246 52.4938 341.997 52.3302C341.749 52.1665 341.459 52.0788 341.163 52.0777C340.616 52.0777 340.29 52.2897 340.29 52.6607C340.29 53.0935 340.947 53.2693 341.79 53.495C343.302 53.8993 345.412 54.4637 345.412 56.9537ZM356.846 60.1019V49.6079H353.732V55.3849C353.732 56.8265 352.933 57.5049 351.797 57.5049C351.548 57.52 351.298 57.4803 351.066 57.3887C350.833 57.2971 350.623 57.1557 350.45 56.9742C350.277 56.7928 350.145 56.5757 350.063 56.3379C349.982 56.1001 349.952 55.8473 349.977 55.5969V49.6079H346.822V56.0739C346.822 58.9041 348.62 60.4199 350.724 60.4199C351.285 60.452 351.846 60.3508 352.361 60.1243C352.877 59.8978 353.332 59.5525 353.69 59.1161V60.1019H356.846ZM374.727 53.657V60.1018H371.572V53.9326C371.572 52.8726 371.077 52.2154 370.078 52.2154C369.079 52.2154 368.448 52.9468 368.448 54.187V60.1018H365.292V53.9326C365.292 52.8726 364.798 52.2154 363.799 52.2154C362.799 52.2154 362.168 52.9468 362.168 54.187V60.1018H359.013V49.6078H362.168V50.5724C362.495 50.1463 362.922 49.8088 363.41 49.5904C363.899 49.3721 364.433 49.2797 364.966 49.3216C365.5 49.2936 366.032 49.4059 366.509 49.6475C366.987 49.889 367.394 50.2516 367.69 50.6996C368.037 50.2316 368.496 49.8597 369.024 49.6187C369.552 49.3777 370.132 49.2755 370.709 49.3216C373.171 49.3216 374.727 51.0388 374.727 53.657ZM379.692 47.2123C379.692 48.5002 378.656 49.5443 377.378 49.5443C376.1 49.5443 375.064 48.5002 375.064 47.2123C375.064 45.9243 376.1 44.8802 377.378 44.8802C378.656 44.8802 379.692 45.9243 379.692 47.2123Z" fill="white" fill-opacity="0.45"/>
<path d="M43.3347 51.7895C42.9382 52.1899 42.6346 52.6731 42.4454 53.2046C42.2562 53.7362 42.1862 54.3031 42.2403 54.865L42.2215 54.8461C42.2771 55.5074 42.1883 56.173 41.9611 56.7963C41.734 57.4196 41.3741 57.9857 40.9064 58.455C40.4388 58.9243 39.8748 59.2855 39.2537 59.5135C38.6326 59.7414 37.9694 59.8306 37.3104 59.7748L37.3292 59.7937C36.541 59.72 35.7493 59.8922 35.0621 60.2867C34.3749 60.6811 33.8256 61.2787 33.4892 61.9979C33.1528 62.7172 33.0456 63.523 33.1823 64.3056C33.3189 65.0882 33.6928 65.8094 34.2528 66.371C34.8129 66.9325 35.5319 67.3071 36.3118 67.4435C37.0917 67.5799 37.8946 67.4716 38.6109 67.1334C39.3273 66.7951 39.9222 66.2434 40.3147 65.5533C40.7071 64.8633 40.8779 64.0686 40.8038 63.2776L40.8237 63.2965C40.7681 62.6351 40.8569 61.9696 41.0841 61.3463C41.3112 60.7229 41.6712 60.1569 42.1388 59.6876C42.6064 59.2183 43.1704 58.857 43.7915 58.6291C44.4126 58.4011 45.0758 58.312 45.7348 58.3678L45.7149 58.3489C46.3588 58.407 47.007 58.301 47.5992 58.0408C48.1914 57.7806 48.7087 57.3746 49.1029 56.8604C49.4972 56.3462 49.7557 55.7404 49.8546 55.0992C49.9534 54.458 49.8894 53.8021 49.6684 53.1924C49.4474 52.5826 49.0767 52.0387 48.5905 51.6111C48.1043 51.1834 47.5184 50.8858 46.8871 50.7459C46.2558 50.606 45.5995 50.6283 44.9791 50.8108C44.3586 50.9932 43.7941 51.3298 43.3379 51.7895H43.3347Z" fill="white" fill-opacity="0.45"/>
<path d="M35.6162 57.3177L35.5963 57.2988C36.1564 57.3554 36.722 57.2864 37.2523 57.0968C37.7825 56.9072 38.2642 56.6016 38.6624 56.2023C39.0606 55.803 39.3654 55.3199 39.5547 54.7878C39.7441 54.2558 39.8132 53.6882 39.7572 53.1261L39.7771 53.145C39.7215 52.4836 39.8103 51.8181 40.0375 51.1947C40.2646 50.5714 40.6246 50.0053 41.0922 49.536C41.5598 49.0667 42.1238 48.7055 42.7449 48.4776C43.366 48.2496 44.0292 48.1604 44.6882 48.2163L44.6683 48.1974C45.4567 48.2717 46.2486 48.1001 46.9362 47.7061C47.6238 47.312 48.1736 46.7147 48.5105 45.9956C48.8474 45.2765 48.9551 44.4706 48.8188 43.6878C48.6826 42.905 48.309 42.1835 47.7491 41.6216C47.1893 41.0597 46.4703 40.6848 45.6903 40.5481C44.9103 40.4113 44.1073 40.5194 43.3907 40.8575C42.6742 41.1956 42.079 41.7474 41.6864 42.4374C41.2938 43.1275 41.1228 43.9223 41.1969 44.7135L41.178 44.6935C41.2339 45.3549 41.1451 46.0205 40.9181 46.6439C40.691 47.2674 40.331 47.8335 39.8634 48.3028C39.3957 48.7722 38.8316 49.1334 38.2104 49.3613C37.5892 49.5892 36.926 49.6782 36.267 49.6222L36.2858 49.6422C35.7257 49.5855 35.1601 49.6545 34.6298 49.8441C34.0995 50.0338 33.6179 50.3393 33.2197 50.7386C32.8215 51.1379 32.5167 51.6211 32.3274 52.1531C32.138 52.6851 32.0688 53.2527 32.1249 53.8149L32.106 53.796C32.1615 54.4573 32.0725 55.1227 31.8453 55.746C31.6181 56.3692 31.2581 56.9352 30.7905 57.4045C30.323 57.8737 29.759 58.235 29.138 58.463C28.517 58.691 27.8539 58.7803 27.1949 58.7247L27.2138 58.7436C26.4254 58.6693 25.6335 58.8408 24.9459 59.2349C24.2583 59.6289 23.7085 60.2262 23.3716 60.9453C23.0347 61.6644 22.927 62.4703 23.0633 63.2531C23.1995 64.0359 23.5731 64.7574 24.1329 65.3193C24.6928 65.8812 25.4118 66.2561 26.1918 66.3928C26.9718 66.5296 27.7748 66.4215 28.4913 66.0834C29.2079 65.7453 29.8031 65.1936 30.1957 64.5035C30.5883 63.8134 30.7592 63.0186 30.6852 62.2275L30.7051 62.2464C30.6495 61.585 30.7383 60.9195 30.9655 60.2961C31.1926 59.6728 31.5525 59.1068 32.0202 58.6374C32.4878 58.1681 33.0518 57.8069 33.6729 57.579C34.294 57.351 34.9572 57.2618 35.6162 57.3177V57.3177Z" fill="white" fill-opacity="0.45"/>
<path d="M28.6043 55.2105C29.0009 54.8102 29.3045 54.327 29.4935 53.7954C29.6825 53.2638 29.7522 52.6968 29.6976 52.135L29.7175 52.1539C29.6618 51.4924 29.7507 50.8266 29.978 50.2032C30.2052 49.5797 30.5654 49.0135 31.0332 48.5441C31.5011 48.0748 32.0654 47.7136 32.6868 47.4858C33.3081 47.258 33.9715 47.1691 34.6307 47.2252L34.6108 47.2063C35.3989 47.2804 36.1905 47.1088 36.8778 46.7148C37.5651 46.3208 38.1145 45.7236 38.4513 45.0047C38.788 44.2858 38.8955 43.4802 38.7593 42.6977C38.623 41.9152 38.2496 41.194 37.6899 40.6323C37.1302 40.0706 36.4116 39.6958 35.6319 39.5591C34.8522 39.4224 34.0494 39.5303 33.3331 39.8682C32.6168 40.2061 32.0218 40.7576 31.6292 41.4473C31.2366 42.1371 31.0655 42.9316 31.1394 43.7224L31.1205 43.7035C31.1762 44.3649 31.0873 45.0304 30.8602 45.6538C30.633 46.2771 30.2731 46.8432 29.8055 47.3125C29.3378 47.7818 28.7738 48.143 28.1527 48.3709C27.5316 48.5989 26.8684 48.6881 26.2094 48.6322L26.2283 48.6511C25.5844 48.5932 24.9363 48.6993 24.3442 48.9596C23.752 49.2199 23.2349 49.626 22.8408 50.1403C22.4466 50.6546 22.1882 51.2604 22.0895 51.9015C21.9908 52.5427 22.0549 53.1985 22.2759 53.8082C22.497 54.4179 22.8678 54.9618 23.354 55.3893C23.8402 55.8169 24.4261 56.1144 25.0574 56.2542C25.6887 56.3941 26.3449 56.3717 26.9653 56.1893C27.5857 56.0068 28.1502 55.6702 28.6064 55.2105H28.6043Z" fill="white" fill-opacity="0.45"/>
<path d="M61.0142 44.7378H64.1215V59.9134H61.0142V44.7378Z" fill="white" fill-opacity="0.45"/>
<path d="M65.881 54.7169C65.8767 53.6264 66.1949 52.559 66.7955 51.6501C67.396 50.7412 68.2519 50.0317 69.2546 49.6113C70.2573 49.1909 71.3618 49.0787 72.4281 49.2887C73.4945 49.4988 74.4747 50.0218 75.2446 50.7914C76.0146 51.561 76.5396 52.5426 76.7532 53.6119C76.9668 54.6812 76.8594 55.7901 76.4445 56.7981C76.0297 57.8061 75.3261 58.6678 74.4228 59.2742C73.5196 59.8806 72.4574 60.2042 71.3707 60.2042C70.6493 60.2125 69.9336 60.0764 69.2653 59.8038C68.597 59.5312 67.9895 59.1277 67.4784 58.6168C66.9672 58.1059 66.5627 57.4979 66.2885 56.8283C66.0142 56.1587 65.8757 55.4409 65.881 54.7169V54.7169ZM73.753 54.7169C73.74 54.2469 73.5893 53.791 73.3196 53.4065C73.0499 53.0219 72.6733 52.7257 72.2367 52.5547C71.8002 52.3838 71.3231 52.3459 70.8652 52.4456C70.4073 52.5453 69.9888 52.7783 69.6621 53.1154C69.3353 53.4525 69.1149 53.8787 69.0283 54.3409C68.9416 54.8031 68.9927 55.2806 69.175 55.7138C69.3573 56.147 69.6629 56.5166 70.0534 56.7765C70.4439 57.0364 70.9021 57.175 71.3707 57.175C71.6916 57.1836 72.0108 57.1254 72.3082 57.004C72.6055 56.8826 72.8746 56.7007 73.0984 56.4698C73.3223 56.2388 73.496 55.9639 73.6086 55.6622C73.7213 55.3605 73.7704 55.0386 73.753 54.7169V54.7169Z" fill="white" fill-opacity="0.45"/>
<path d="M89.2448 49.5194V59.3894C89.2448 62.8817 86.5309 64.358 83.7761 64.358C82.8062 64.4308 81.835 64.2342 80.969 63.7897C80.1031 63.3452 79.3759 62.6699 78.8671 61.838L81.5183 60.2997C81.7321 60.7334 82.0729 61.0911 82.4949 61.3251C82.9169 61.5591 83.4 61.6582 83.8797 61.6091C84.1862 61.6517 84.4984 61.6246 84.7931 61.5298C85.0878 61.435 85.3575 61.2749 85.5822 61.0614C85.8069 60.8478 85.981 60.5863 86.0914 60.2962C86.2018 60.006 86.2458 59.6947 86.2201 59.3852V58.4349C85.8563 58.8817 85.3931 59.2367 84.8678 59.4714C84.3425 59.7061 83.7697 59.8139 83.1954 59.7863C81.8288 59.743 80.5326 59.1678 79.5811 58.1823C78.6297 57.1969 78.0977 55.8785 78.0977 54.5063C78.0977 53.1342 78.6297 51.8158 79.5811 50.8304C80.5326 49.8449 81.8288 49.2697 83.1954 49.2264C83.7697 49.1988 84.3425 49.3066 84.8678 49.5413C85.3931 49.776 85.8563 50.1309 86.2201 50.5778V49.5173L89.2448 49.5194ZM86.2212 54.5079C86.2421 54.0053 86.1126 53.508 85.8494 53.0799C85.5863 52.6518 85.2015 52.3125 84.7446 52.1057C84.2877 51.8989 83.7796 51.8341 83.2857 51.9196C82.7917 52.005 82.3346 52.2369 81.9731 52.5853C81.6116 52.9337 81.3622 53.3828 81.2572 53.8746C81.1521 54.3664 81.1961 54.8786 81.3835 55.3451C81.5709 55.8116 81.8931 56.2112 82.3087 56.4924C82.7243 56.7736 83.2142 56.9235 83.7154 56.9229C84.0419 56.9458 84.3695 56.8998 84.6772 56.7878C84.9849 56.6759 85.2658 56.5005 85.5019 56.273C85.7379 56.0455 85.9239 55.7709 86.0478 55.4669C86.1717 55.1629 86.2307 54.8362 86.2212 54.5079V54.5079Z" fill="white" fill-opacity="0.45"/>
<path d="M91.0045 54.7169C91.0002 53.6264 91.3185 52.559 91.919 51.6501C92.5196 50.7412 93.3754 50.0317 94.3781 49.6113C95.3808 49.1909 96.4853 49.0787 97.5517 49.2887C98.618 49.4988 99.5982 50.0218 100.368 50.7914C101.138 51.561 101.663 52.5426 101.877 53.6119C102.09 54.6812 101.983 55.7901 101.568 56.7981C101.153 57.8061 100.45 58.6678 99.5464 59.2742C98.6431 59.8806 97.5809 60.2042 96.4942 60.2042C95.7729 60.2125 95.0571 60.0764 94.3888 59.8038C93.7205 59.5312 93.113 59.1277 92.6019 58.6168C92.0908 58.1059 91.6863 57.4979 91.412 56.8283C91.1377 56.1587 90.9992 55.4409 91.0045 54.7169V54.7169ZM98.8765 54.7169C98.8636 54.2469 98.7128 53.791 98.4431 53.4065C98.1734 53.0219 97.7968 52.7257 97.3602 52.5547C96.9237 52.3838 96.4466 52.3459 95.9887 52.4456C95.5308 52.5453 95.1123 52.7783 94.7856 53.1154C94.4589 53.4525 94.2384 53.8787 94.1518 54.3409C94.0652 54.8031 94.1162 55.2806 94.2985 55.7138C94.4809 56.147 94.7864 56.5166 95.1769 56.7765C95.5674 57.0364 96.0256 57.175 96.4942 57.175C96.8151 57.1836 97.1343 57.1254 97.4317 57.004C97.7291 56.8826 97.9981 56.7007 98.222 56.4698C98.4458 56.2388 98.6195 55.9639 98.7322 55.6622C98.8448 55.3605 98.894 55.0386 98.8765 54.7169Z" fill="white" fill-opacity="0.45"/>
<path d="M103.433 46.7339C103.433 46.3638 103.542 46.0021 103.747 45.6944C103.952 45.3867 104.243 45.1468 104.584 45.0052C104.925 44.8636 105.3 44.8265 105.661 44.8987C106.023 44.9709 106.355 45.1492 106.616 45.4108C106.877 45.6725 107.054 46.0059 107.126 46.3689C107.198 46.7318 107.161 47.108 107.02 47.4499C106.879 47.7918 106.64 48.0841 106.333 48.2897C106.027 48.4953 105.666 48.605 105.298 48.605C104.805 48.6001 104.333 48.4014 103.985 48.0515C103.636 47.7017 103.438 47.2286 103.433 46.7339V46.7339ZM103.747 49.5195H106.855V59.9145H103.743L103.747 49.5195Z" fill="white" fill-opacity="0.45"/>
<path d="M120.272 54.7168C120.308 55.4038 120.209 56.0911 119.979 56.7393C119.749 57.3875 119.394 57.9837 118.934 58.4936C118.474 59.0036 117.918 59.4172 117.298 59.7108C116.678 60.0043 116.006 60.172 115.322 60.2041C114.746 60.2356 114.17 60.1382 113.637 59.9188C113.103 59.6994 112.625 59.3636 112.236 58.9357V64.0713H109.129V49.5193H112.236V50.4958C112.625 50.0682 113.103 49.7327 113.637 49.5135C114.17 49.2943 114.746 49.1969 115.322 49.2284C116.007 49.2604 116.678 49.428 117.298 49.7216C117.918 50.0152 118.475 50.4289 118.935 50.939C119.395 51.4491 119.75 52.0455 119.98 52.6938C120.209 53.3422 120.309 54.0297 120.272 54.7168V54.7168ZM117.165 54.7168C117.153 54.2303 116.998 53.7582 116.72 53.3596C116.442 52.961 116.053 52.6536 115.601 52.4759C115.15 52.2981 114.656 52.2579 114.182 52.3604C113.708 52.4628 113.275 52.7032 112.936 53.0516C112.598 53.4001 112.369 53.8409 112.279 54.3191C112.189 54.7973 112.241 55.2915 112.43 55.7399C112.618 56.1883 112.934 56.571 113.338 56.8401C113.742 57.1091 114.216 57.2526 114.701 57.2526C115.034 57.2674 115.366 57.2115 115.676 57.0885C115.986 56.9654 116.267 56.7781 116.499 56.5386C116.732 56.2992 116.911 56.0131 117.026 55.6991C117.141 55.3852 117.188 55.0504 117.165 54.7168V54.7168Z" fill="white" fill-opacity="0.45"/>
<path d="M129.861 56.7949C129.861 59.1857 127.791 60.2042 125.554 60.2042C124.65 60.2864 123.743 60.0946 122.949 59.6536C122.155 59.2126 121.511 58.5426 121.1 57.7304L123.792 56.1922C123.901 56.5676 124.135 56.8942 124.455 57.1174C124.775 57.3406 125.161 57.4469 125.55 57.4186C126.295 57.4186 126.668 57.1897 126.668 56.7749C126.668 55.6304 121.572 56.2342 121.572 52.6379C121.572 50.371 123.478 49.2286 125.632 49.2286C126.442 49.2029 127.244 49.3956 127.954 49.7868C128.665 50.178 129.258 50.7532 129.671 51.4525L127.02 52.8868C126.904 52.6145 126.71 52.3826 126.463 52.22C126.217 52.0573 125.928 51.9712 125.632 51.9722C125.094 51.9722 124.762 52.1822 124.762 52.5539C124.766 53.7394 129.861 52.9487 129.861 56.7949Z" fill="white" fill-opacity="0.45"/>
<path d="M141.212 49.5195V59.9145H138.105V58.937C137.747 59.3683 137.291 59.7082 136.777 59.9287C136.262 60.1492 135.702 60.244 135.144 60.2054C133.052 60.2054 131.273 58.7091 131.273 55.9004V49.5195H134.38V55.4436C134.354 55.6912 134.382 55.9415 134.463 56.1771C134.543 56.4127 134.673 56.6279 134.845 56.8078C135.016 56.9876 135.225 57.1279 135.455 57.2187C135.686 57.3095 135.934 57.3487 136.182 57.3336C137.321 57.3336 138.108 56.669 138.108 55.1927V49.5227L141.212 49.5195Z" fill="white" fill-opacity="0.45"/>
<path d="M159.03 53.5316V59.9135H155.923V53.8014C155.923 52.7619 155.426 52.0973 154.432 52.0973C153.396 52.0973 152.815 52.8249 152.815 54.0513V59.9135H149.709V53.8014C149.709 52.7619 149.212 52.0973 148.217 52.0973C147.181 52.0973 146.601 52.8249 146.601 54.0513V59.9135H143.494V49.5185H146.601V50.474C146.924 50.0501 147.346 49.7139 147.831 49.4962C148.316 49.2785 148.848 49.1861 149.377 49.2276C149.909 49.2015 150.438 49.3141 150.914 49.5544C151.389 49.7948 151.794 50.1546 152.09 50.5989C152.434 50.1341 152.891 49.7645 153.416 49.5247C153.941 49.2849 154.519 49.1827 155.094 49.2276C157.472 49.2287 159.03 50.9328 159.03 53.5316Z" fill="white" fill-opacity="0.45"/>
<path d="M161.658 49.4553C162.932 49.4553 163.964 48.4192 163.964 47.1411C163.964 45.863 162.932 44.8269 161.658 44.8269C160.384 44.8269 159.352 45.863 159.352 47.1411C159.352 48.4192 160.384 49.4553 161.658 49.4553Z" fill="white" fill-opacity="0.45"/>
<path d="M504.183 47.2735H507.338V60.01H504.183V47.2735ZM508.59 55.201C508.59 52.051 510.525 50.1715 513.513 50.1715C516.5 50.1715 518.435 52.051 518.435 55.201C518.435 58.351 516.542 60.241 513.513 60.241C510.483 60.241 508.59 58.4035 508.59 55.201ZM515.269 55.201C515.269 53.4685 514.586 52.45 513.513 52.45C512.44 52.45 511.767 53.5 511.767 55.201C511.767 56.902 512.429 57.931 513.513 57.931C514.596 57.931 515.269 56.965 515.269 55.2115V55.201ZM519.624 60.6295H522.653C522.797 60.9492 523.041 61.2139 523.348 61.3842C523.655 61.5545 524.009 61.6212 524.357 61.5745C525.556 61.5745 526.188 60.9235 526.188 59.9785V58.2145H526.124C525.873 58.7552 525.465 59.2082 524.953 59.5151C524.441 59.8221 523.849 59.9688 523.253 59.9365C520.949 59.9365 519.424 58.183 519.424 55.1695C519.424 52.156 520.876 50.2555 523.295 50.2555C523.91 50.2315 524.517 50.3956 525.036 50.7259C525.555 51.0561 525.961 51.5368 526.198 52.1035V50.35H529.354V59.905C529.354 62.2045 527.324 63.6325 524.326 63.6325C521.538 63.6325 519.803 62.383 519.624 60.64V60.6295ZM526.198 55.1905C526.198 53.6575 525.493 52.6915 524.378 52.6915C523.263 52.6915 522.58 53.647 522.58 55.1905C522.58 56.734 523.253 57.6055 524.378 57.6055C525.504 57.6055 526.198 56.755 526.198 55.201V55.1905ZM530.542 55.1905C530.542 52.0405 532.478 50.161 535.465 50.161C538.452 50.161 540.398 52.0405 540.398 55.1905C540.398 58.3405 538.505 60.2305 535.465 60.2305C532.425 60.2305 530.542 58.4035 530.542 55.201V55.1905ZM537.222 55.1905C537.222 53.458 536.538 52.4395 535.465 52.4395C534.392 52.4395 533.771 53.5 533.771 55.2115C533.771 56.923 534.434 57.9415 535.507 57.9415C536.58 57.9415 537.222 56.965 537.222 55.2115V55.1905ZM541.597 48.061C541.589 47.743 541.676 47.4297 541.846 47.1608C542.016 46.8919 542.263 46.6795 542.554 46.5506C542.845 46.4217 543.169 46.3821 543.483 46.4367C543.797 46.4914 544.087 46.6379 544.318 46.8576C544.548 47.0774 544.708 47.3605 544.777 47.671C544.846 47.9816 544.821 48.3057 544.706 48.6022C544.59 48.8986 544.389 49.1541 544.128 49.3363C543.866 49.5185 543.557 49.6192 543.238 49.6255C543.027 49.64 542.815 49.6107 542.616 49.5395C542.416 49.4683 542.234 49.3568 542.08 49.2118C541.926 49.0669 541.803 48.8917 541.72 48.6973C541.637 48.5028 541.595 48.2934 541.597 48.082V48.061ZM541.597 50.371H544.753V60.01H541.597V50.371ZM556.208 55.1905C556.208 58.3405 554.809 60.136 552.41 60.136C551.796 60.1754 551.183 60.0254 550.657 59.7061C550.13 59.3869 549.714 58.9138 549.465 58.351H549.402V63.097H546.247V50.35H549.402V52.072H549.465C549.702 51.4999 550.11 51.0146 550.633 50.682C551.157 50.3495 551.77 50.1859 552.389 50.2135C554.809 50.2555 556.25 52.0615 556.25 55.2115L556.208 55.1905ZM553.052 55.1905C553.052 53.6575 552.347 52.681 551.243 52.681C550.138 52.681 549.434 53.668 549.423 55.1905C549.413 56.713 550.138 57.6895 551.243 57.6895C552.347 57.6895 553.052 56.734 553.052 55.2115V55.1905ZM561.625 50.1505C564.244 50.1505 565.832 51.3895 565.906 53.374H563.034C563.034 52.6915 562.466 52.261 561.593 52.261C560.72 52.261 560.331 52.597 560.331 53.0905C560.331 53.584 560.678 53.7415 561.383 53.8885L563.402 54.298C565.327 54.7075 566.148 55.4845 566.148 56.944C566.148 58.939 564.328 60.22 561.646 60.22C558.964 60.22 557.207 58.939 557.07 56.9755H560.11C560.205 57.6895 560.773 58.1095 561.698 58.1095C562.624 58.1095 563.045 57.805 563.045 57.301C563.045 56.797 562.75 56.692 561.993 56.5345L560.173 56.146C558.29 55.7575 557.302 54.76 557.302 53.29C557.323 51.4 559.016 50.1715 561.625 50.1715V50.1505ZM576.677 59.989H573.637V58.1935H573.574C573.407 58.7963 573.038 59.324 572.529 59.6888C572.02 60.0536 571.402 60.2336 570.776 60.199C570.297 60.2262 569.817 60.1504 569.369 59.9766C568.922 59.8029 568.517 59.5353 568.182 59.1919C567.847 58.8485 567.589 58.4373 567.427 57.9861C567.265 57.5349 567.202 57.0542 567.242 56.5765V50.35H570.397V55.852C570.397 56.9965 570.986 57.6055 571.965 57.6055C572.194 57.606 572.421 57.5575 572.63 57.4633C572.839 57.3691 573.025 57.2314 573.177 57.0594C573.328 56.8874 573.441 56.685 573.508 56.4659C573.574 56.2468 573.593 56.016 573.563 55.789V50.35H576.719L576.677 59.989ZM578.202 50.35H581.253V52.2085H581.316C581.483 51.6137 581.843 51.091 582.34 50.7224C582.837 50.3539 583.442 50.1601 584.061 50.1715C584.691 50.1212 585.316 50.3093 585.813 50.6984C586.31 51.0875 586.642 51.6491 586.743 52.2715H586.806C586.997 51.6425 587.392 51.0948 587.929 50.7146C588.466 50.3343 589.115 50.1433 589.773 50.1715C590.202 50.1571 590.629 50.233 591.027 50.3943C591.425 50.5555 591.784 50.7985 592.082 51.1075C592.379 51.4165 592.609 51.7845 592.754 52.1876C592.9 52.5908 592.959 53.02 592.928 53.4475V60.01H589.773V54.2875C589.773 53.2375 589.299 52.7545 588.416 52.7545C588.219 52.7529 588.024 52.7934 587.844 52.8734C587.664 52.9534 587.503 53.071 587.372 53.2183C587.242 53.3656 587.144 53.5391 587.087 53.7272C587.029 53.9153 587.012 54.1135 587.038 54.3085V60.01H584.04V54.2455C584.04 53.2795 583.567 52.7545 582.704 52.7545C582.505 52.7546 582.308 52.7968 582.126 52.8784C581.944 52.9601 581.782 53.0792 581.65 53.2281C581.518 53.3769 581.419 53.552 581.359 53.7419C581.3 53.9317 581.281 54.132 581.305 54.3295V60.01H578.15L578.202 50.35Z" fill="white" fill-opacity="0.45"/>
<path d="M495.357 47.6007C494.822 46.3789 494.114 45.2403 493.254 44.2197C491.982 42.6661 490.396 41.3988 488.599 40.5013C486.802 39.6037 484.834 39.0963 482.826 39.0124C480.819 38.9285 478.816 39.27 476.95 40.0145C475.084 40.7589 473.397 41.8894 472 43.3316C470.603 44.7737 469.528 46.4948 468.845 48.3816C468.163 50.2684 467.888 52.278 468.04 54.2783C468.192 56.2786 468.766 58.2242 469.725 59.987C470.684 61.7498 472.006 63.2898 473.605 64.5057C474.63 65.3015 475.764 65.9484 476.971 66.4272C478.663 67.1196 480.475 67.4762 482.304 67.4772C486.079 67.4689 489.697 65.9666 492.365 63.2996C495.033 60.6326 496.533 57.0186 496.535 53.2497C496.538 51.3057 496.137 49.3822 495.357 47.6007ZM482.293 41.8992C483.936 41.8991 485.558 42.2574 487.048 42.9492C486.684 43.1059 486.303 43.2153 485.912 43.2747C484.625 43.4607 483.433 44.0571 482.513 44.9749C481.594 45.8927 480.996 47.0827 480.81 48.3672C480.728 49.0877 480.4 49.7579 479.881 50.2648C479.361 50.7717 478.683 51.0843 477.959 51.1497C476.673 51.3357 475.481 51.9321 474.561 52.8499C473.642 53.7677 473.044 54.9577 472.858 56.2422C472.795 56.9272 472.502 57.571 472.027 58.0692C471.207 56.3402 470.839 54.4322 470.956 52.5228C471.074 50.6135 471.673 48.7649 472.699 47.149C473.725 45.5331 475.143 44.2024 476.823 43.2809C478.502 42.3593 480.387 41.8768 482.304 41.8782L482.293 41.8992ZM473.594 60.5997C473.72 60.4842 473.847 60.3792 473.973 60.2532C474.909 59.3476 475.509 58.152 475.677 56.8617C475.745 56.1364 476.069 55.459 476.592 54.9507C477.095 54.428 477.772 54.1069 478.496 54.0477C479.783 53.8618 480.975 53.2654 481.894 52.3476C482.814 51.4298 483.411 50.2398 483.597 48.9552C483.643 48.1966 483.969 47.4819 484.513 46.9497C485.028 46.4372 485.712 46.1277 486.438 46.0782C487.62 45.9159 488.722 45.3912 489.593 44.5767C490.585 45.3979 491.425 46.3858 492.075 47.4957C492.036 47.5497 491.99 47.599 491.939 47.6427C491.437 48.17 490.76 48.4982 490.035 48.5667C488.747 48.7494 487.553 49.3448 486.633 50.2632C485.713 51.1816 485.116 52.3733 484.933 53.6592C484.859 54.3821 484.537 55.0571 484.021 55.57C483.506 56.0828 482.828 56.4019 482.104 56.4732C480.813 56.6578 479.617 57.253 478.692 58.1704C477.767 59.0878 477.164 60.2786 476.971 61.5657C476.914 62.0789 476.738 62.5716 476.455 63.0042C475.376 62.3646 474.41 61.5523 473.594 60.5997ZM482.293 64.6527C481.226 64.6539 480.164 64.5054 479.138 64.2117C479.489 63.5586 479.717 62.8469 479.811 62.1117C479.884 61.3905 480.205 60.7167 480.719 60.2041C481.232 59.6914 481.907 59.3713 482.63 59.2977C483.919 59.1139 485.113 58.5184 486.035 57.6004C486.956 56.6825 487.555 55.4913 487.742 54.2052C487.816 53.484 488.136 52.8102 488.65 52.2976C489.163 51.7849 489.838 51.4648 490.561 51.3912C491.531 51.2653 492.455 50.9049 493.254 50.3412C493.697 52.019 493.75 53.7759 493.407 55.4772C493.065 57.1784 492.336 58.7787 491.278 60.1553C490.22 61.532 488.86 62.6484 487.303 63.4189C485.745 64.1894 484.031 64.5935 482.293 64.6002V64.6527Z" fill="white" fill-opacity="0.45"/>
<path d="M938.7 47.4731H942.077V61.1231H938.7V47.4731ZM943.423 55.9886C943.423 52.6076 945.527 50.5811 948.682 50.5811C951.838 50.5811 953.942 52.6076 953.942 55.9886C953.942 59.3696 951.912 61.4171 948.682 61.4171C945.453 61.4171 943.423 59.4431 943.423 55.9886ZM950.597 55.9886C950.597 54.1301 949.871 53.0381 948.714 53.0381C947.557 53.0381 946.842 54.0881 946.842 55.9886C946.842 57.8891 947.557 58.9286 948.714 58.9286C949.871 58.9286 950.618 57.8891 950.618 55.9991L950.597 55.9886ZM955.288 61.8266H958.549C958.697 62.177 958.957 62.4693 959.287 62.6589C959.617 62.8485 960.001 62.9249 960.379 62.8766C961.673 62.8766 962.346 62.1836 962.346 61.1546V59.2646H962.357C962.078 59.8531 961.627 60.3436 961.064 60.6716C960.501 60.9996 959.851 61.1496 959.201 61.1021C956.729 61.1021 955.088 59.2226 955.088 55.9886C955.088 52.7546 956.655 50.7386 959.296 50.7386C959.963 50.7029 960.624 50.8747 961.189 51.2301C961.755 51.5855 962.195 52.1071 962.451 52.7231H962.357V50.8226H965.701V61.0496C965.701 63.5171 963.514 65.0606 960.295 65.0606C957.371 65.0501 955.498 63.7166 955.309 61.8371L955.288 61.8266ZM962.357 55.9886C962.357 54.3401 961.599 53.3006 960.4 53.3006C959.201 53.3006 958.465 54.3506 958.465 55.9886C958.465 57.6266 959.19 58.5926 960.4 58.5926C961.61 58.5926 962.357 57.7001 962.357 55.9886ZM967.037 55.9886C967.037 52.6076 969.141 50.5811 972.297 50.5811C975.452 50.5811 977.556 52.6076 977.556 55.9886C977.556 59.3696 975.515 61.4171 972.297 61.4171C969.078 61.4171 967.058 59.4431 967.058 55.9886H967.037ZM974.211 55.9886C974.211 54.1301 973.475 53.0381 972.328 53.0381C971.182 53.0381 970.456 54.0881 970.456 55.9886C970.456 57.8891 971.171 58.9286 972.328 58.9286C973.485 58.9286 974.232 57.8891 974.232 55.9991L974.211 55.9886ZM978.923 48.3341C978.909 47.9907 978.997 47.6509 979.178 47.3582C979.358 47.0655 979.622 46.8334 979.936 46.6917C980.249 46.5501 980.598 46.5053 980.938 46.5632C981.277 46.6211 981.591 46.779 981.84 47.0167C982.088 47.2543 982.26 47.5608 982.333 47.8967C982.406 48.2326 982.376 48.5825 982.248 48.9014C982.12 49.2204 981.899 49.4938 981.614 49.6865C981.329 49.8791 980.993 49.9823 980.648 49.9826C980.428 49.9882 980.21 49.9501 980.004 49.8705C979.799 49.7909 979.612 49.6715 979.453 49.5191C979.295 49.3667 979.168 49.1844 979.081 48.9828C978.994 48.7812 978.947 48.5642 978.944 48.3446L978.923 48.3341ZM978.923 50.8121H982.342V61.1651H978.976L978.923 50.8121ZM994.638 55.9886C994.638 59.3591 993.124 61.3121 990.546 61.3121C989.887 61.3527 989.23 61.1902 988.666 60.8466C988.102 60.503 987.657 59.9948 987.391 59.3906H987.328V64.4936H983.951V50.8436H987.307V52.6916H987.37C987.627 52.0755 988.067 51.5534 988.632 51.1964C989.197 50.8394 989.858 50.6649 990.525 50.6966C993.176 50.6756 994.701 52.6181 994.701 55.9991L994.638 55.9886ZM991.199 55.9886C991.199 54.3506 990.431 53.2901 989.242 53.2901C988.054 53.2901 987.307 54.3401 987.296 55.9886C987.286 57.6371 988.054 58.6766 989.242 58.6766C990.431 58.6766 991.262 57.7001 991.262 55.9991L991.199 55.9886ZM1000.4 50.5706C1003.23 50.5706 1004.99 51.9041 1005.01 54.0461H1001.93C1001.93 53.3006 1001.31 52.8386 1000.38 52.8386C999.456 52.8386 999.014 53.1956 999.014 53.7311C999.014 54.2666 999.403 54.4346 1000.18 54.5921L1002.35 55.0331C1004.45 55.4741 1005.29 56.3141 1005.29 57.8786C1005.29 59.9786 1003.35 61.4066 1000.46 61.4066C997.562 61.4066 995.68 60.0206 995.543 57.9101H998.814C998.909 58.6766 999.519 59.1281 1000.51 59.1281C1001.5 59.1281 1001.96 58.8131 1001.96 58.2566C1001.96 57.7001 1001.64 57.6056 1000.83 57.4376L998.877 57.0281C996.847 56.5976 995.785 55.5371 995.785 53.9516C995.848 51.8936 997.615 50.5811 1000.47 50.5811L1000.4 50.5706ZM1016.6 61.1546H1013.33V59.2121H1013.27C1013.08 59.86 1012.68 60.4263 1012.14 60.8176C1011.59 61.2089 1010.92 61.4018 1010.25 61.3646C1009.74 61.3811 1009.23 61.2901 1008.76 61.0976C1008.29 60.9051 1007.87 60.6154 1007.52 60.2475C1007.17 59.8797 1006.9 59.442 1006.73 58.9631C1006.56 58.4843 1006.49 57.9751 1006.53 57.4691V50.8226H1009.91V56.7446C1009.91 57.9626 1010.55 58.6241 1011.6 58.6241C1011.85 58.6222 1012.1 58.5675 1012.32 58.4637C1012.54 58.3599 1012.74 58.2093 1012.9 58.0222C1013.06 57.8351 1013.18 57.6158 1013.25 57.3791C1013.32 57.1424 1013.33 56.8938 1013.3 56.6501V50.8226H1016.66L1016.6 61.1546ZM1018.23 50.8121H1021.51V52.8071H1021.59C1021.77 52.168 1022.16 51.6069 1022.69 51.2118C1023.23 50.8166 1023.88 50.6095 1024.54 50.6231C1025.21 50.5651 1025.88 50.7579 1026.41 51.1637C1026.94 51.5696 1027.3 52.1593 1027.42 52.8176H1027.57C1027.78 52.1558 1028.21 51.5819 1028.78 51.185C1029.35 50.7882 1030.03 50.5906 1030.73 50.6231C1031.19 50.6055 1031.65 50.6855 1032.08 50.8578C1032.51 51.0301 1032.89 51.2908 1033.21 51.6228C1033.54 51.9549 1033.78 52.3508 1033.94 52.7847C1034.1 53.2186 1034.16 53.6806 1034.13 54.1406V61.1651H1030.73V55.0016C1030.73 53.9516 1030.23 53.3636 1029.28 53.3636C1029.06 53.3601 1028.85 53.4025 1028.66 53.4878C1028.46 53.5732 1028.29 53.6995 1028.15 53.858C1028.01 54.0166 1027.9 54.2037 1027.84 54.4065C1027.78 54.6094 1027.76 54.8231 1027.79 55.0331V61.1651H1024.57V54.9701C1024.57 53.9201 1024.06 53.3636 1023.13 53.3636C1022.92 53.3619 1022.71 53.406 1022.51 53.493C1022.31 53.58 1022.14 53.7078 1022 53.8679C1021.85 54.028 1021.75 54.2167 1021.68 54.4213C1021.62 54.6259 1021.6 54.8416 1021.63 55.0541V61.1651H1018.25L1018.23 50.8121Z" fill="white" fill-opacity="0.45"/>
<path d="M932.02 48.3655C932.021 46.2757 931.388 44.2345 930.207 42.5094C929.025 40.7843 927.349 39.4557 925.398 38.6976C923.447 37.9395 921.312 37.7873 919.273 38.2608C917.234 38.7343 915.386 39.8116 913.97 41.3515H900.843V69.0085H928.56V56.083C929.648 55.1117 930.518 53.9223 931.114 52.5925C931.711 51.2628 932.019 49.8224 932.02 48.3655ZM926.688 48.3655C926.69 49.3669 926.394 50.3464 925.838 51.1801C925.282 52.0137 924.491 52.664 923.565 53.0487C922.639 53.4334 921.619 53.5351 920.635 53.341C919.651 53.1469 918.746 52.6657 918.036 51.9584C917.326 51.251 916.842 50.3492 916.646 49.3672C916.449 48.3852 916.549 47.367 916.932 46.4416C917.316 45.5163 917.966 44.7252 918.8 44.1686C919.634 43.6121 920.614 43.315 921.618 43.315C922.96 43.315 924.248 43.8467 925.199 44.7936C926.149 45.7404 926.685 47.025 926.688 48.3655ZM923.227 63.685H906.176V46.675H911.372C911.272 47.233 911.219 47.7985 911.215 48.3655C911.217 51.1188 912.314 53.7585 914.265 55.7054C916.215 57.6522 918.859 58.7472 921.618 58.75C922.157 58.7471 922.695 58.7015 923.227 58.6135V63.685Z" fill="white" fill-opacity="0.45"/>
</g>
</svg>
