<svg width="22" height="24" viewBox="0 0 22 24" fill="none" xmlns="http://www.w3.org/2000/svg">
<path d="M11 0C5.18445 0 0.453125 4.73133 0.453125 10.5469C0.453125 11.1914 0.453125 16.1769 0.453125 16.2656C0.453125 17.4287 1.39939 18.375 2.5625 18.375H3.38656C3.67681 19.1933 4.45836 19.7812 5.375 19.7812C6.53811 19.7812 7.48438 18.835 7.48438 17.6719V11.9531C7.48438 10.79 6.53811 9.84375 5.375 9.84375C4.45836 9.84375 3.67681 10.4317 3.38656 11.25H2.5625C2.31598 11.25 2.07945 11.2929 1.85938 11.3709V10.5469C1.85938 5.50673 5.95986 1.40625 11 1.40625C16.0401 1.40625 20.1406 5.50673 20.1406 10.5469V11.3709C19.9205 11.2929 19.684 11.25 19.4375 11.25H18.6134C18.3232 10.4317 17.5416 9.84375 16.625 9.84375C15.4619 9.84375 14.5156 10.79 14.5156 11.9531V17.6719C14.5156 18.835 15.4619 19.7812 16.625 19.7812C16.8379 19.7812 17.0434 19.7493 17.2372 19.6904C16.9742 20.5558 16.169 21.1875 15.2188 21.1875H12.9884C12.6982 20.3692 11.9166 19.7812 11 19.7812C9.83689 19.7812 8.89062 20.7275 8.89062 21.8906C8.89062 23.0537 9.83689 24 11 24C11.9166 24 12.6982 23.4121 12.9884 22.5938H15.2188C17.1573 22.5938 18.7344 21.0166 18.7344 19.0781V18.375H19.4375C20.6006 18.375 21.5469 17.4287 21.5469 16.2656C21.5469 16.1782 21.5469 11.1908 21.5469 10.5469C21.5469 4.73133 16.8155 0 11 0ZM4.67188 11.9531C4.67188 11.5654 4.9873 11.25 5.375 11.25C5.7627 11.25 6.07812 11.5654 6.07812 11.9531V17.6719C6.07812 18.0596 5.7627 18.375 5.375 18.375C4.9873 18.375 4.67188 18.0596 4.67188 17.6719V11.9531ZM2.5625 12.6562H3.26562V16.9688H2.5625C2.1748 16.9688 1.85938 16.6533 1.85938 16.2656V13.3594C1.85938 12.9717 2.1748 12.6562 2.5625 12.6562ZM11 22.5938C10.6123 22.5938 10.2969 22.2783 10.2969 21.8906C10.2969 21.5029 10.6123 21.1875 11 21.1875C11.3877 21.1875 11.7031 21.5029 11.7031 21.8906C11.7031 22.2783 11.3877 22.5938 11 22.5938ZM17.3281 17.6719C17.3281 18.0596 17.0127 18.375 16.625 18.375C16.2373 18.375 15.9219 18.0596 15.9219 17.6719V11.9531C15.9219 11.5654 16.2373 11.25 16.625 11.25C17.0127 11.25 17.3281 11.5654 17.3281 11.9531V17.6719ZM20.1406 16.2656C20.1406 16.6533 19.8252 16.9688 19.4375 16.9688H18.7344V12.6562H19.4375C19.8252 12.6562 20.1406 12.9717 20.1406 13.3594V16.2656Z" fill="#FFA155"/>
</svg>
