<svg width="24" height="24" viewBox="0 0 24 24" fill="none" xmlns="http://www.w3.org/2000/svg">
<g clip-path="url(#clip0_1_2092)">
<path d="M22.7289 14.6041C22.7289 14.6041 22.7289 14.6041 22.7289 14.6041L22.2056 14.302C20.4749 13.3028 20.4705 10.6999 22.2056 9.69806L22.729 9.39595C23.4005 9.0082 23.6314 8.14645 23.2437 7.47502L21.5406 4.52508C21.1529 3.85364 20.2912 3.62287 19.6196 4.01039L19.0986 4.31123C17.3796 5.30348 15.1093 4.02783 15.1093 2.01309V1.40625C15.1093 0.630844 14.4784 0 13.703 0H10.2968C9.52135 0 8.89051 0.630844 8.89051 1.40625V2.013C8.89051 4.02825 6.61969 5.3032 4.90121 4.31114L4.38015 4.0103C3.70707 3.62161 2.84785 3.85186 2.45916 4.52498L0.756054 7.47492C0.368351 8.14636 0.599211 9.00811 1.27079 9.39586L1.7941 9.69797C3.52473 10.6972 3.52923 13.3001 1.7941 14.3019L1.27069 14.604C0.599164 14.9917 0.368304 15.8535 0.756008 16.5249L2.45912 19.4749C2.84682 20.1464 3.70852 20.3774 4.38005 19.9896L4.90112 19.6887C6.62087 18.696 8.89041 19.9747 8.89041 21.9869V22.5938C8.89041 23.3692 9.52126 24 10.2967 24H13.7029C14.4783 24 15.1092 23.3692 15.1092 22.5938V21.987C15.1092 19.9719 17.3798 18.6967 19.0985 19.6889L19.6196 19.9897C20.2911 20.3774 21.1528 20.1465 21.5405 19.475L23.2436 16.5251C23.6323 15.852 23.4021 14.9927 22.7289 14.6041ZM20.3227 18.7718L19.8016 18.471C17.15 16.9401 13.7029 18.8845 13.7029 21.987V22.5938H10.2967V21.987C10.2967 18.8807 6.8461 16.942 4.19799 18.471L3.67693 18.7718L1.97377 15.8219L2.49713 15.5198C3.7358 14.8046 4.50315 13.4627 4.49987 12.0169V12V11.9823C4.50319 10.5374 3.7358 9.19542 2.49713 8.48025L1.97382 8.17814L3.67693 5.2282L4.19799 5.52905C6.84948 7.05998 10.2967 5.11552 10.2967 2.01305V1.40625H13.7029V2.013C13.7029 5.08673 17.1252 7.07414 19.8016 5.529L20.3227 5.22816L22.0258 8.17809L21.5025 8.4802C18.8303 10.023 18.8341 13.9792 21.5025 15.5198L22.0258 15.8219L20.3227 18.7718Z" fill="#FFA155"/>
<path d="M12 5.97076C8.67544 5.97076 5.9707 8.67545 5.9707 12C5.9707 15.3246 8.67544 18.0293 12 18.0293C15.3246 18.0293 18.0292 15.3246 18.0292 12C18.0292 8.67545 15.3246 5.97076 12 5.97076ZM12 16.623C9.45084 16.623 7.37695 14.5492 7.37695 12C7.37695 9.45086 9.45084 7.37701 12 7.37701C14.5492 7.37701 16.623 9.45086 16.623 12C16.623 14.5492 14.5492 16.623 12 16.623Z" fill="#444CFC"/>
<path d="M13.6241 10.3651L11.2433 12.1322L10.4693 11.3076C10.2035 11.0244 9.75851 11.0102 9.47538 11.276C9.19221 11.5418 9.1781 11.9867 9.44388 12.2699L10.6466 13.5514C10.8911 13.812 11.2919 13.8475 11.5783 13.6348L14.4621 11.4943C14.7739 11.2629 14.8391 10.8225 14.6076 10.5106C14.3763 10.1989 13.9359 10.1338 13.6241 10.3651Z" fill="#444CFC"/>
</g>
<defs>
<clipPath id="clip0_1_2092">
<rect width="24" height="24" fill="white"/>
</clipPath>
</defs>
</svg>
